<svg width="801" height="272" viewBox="0 0 801 272" fill="none" xmlns="http://www.w3.org/2000/svg">
<path d="M80.5029 114.112V93.6191H128.555C128.555 93.6191 138.443 96.441 141.982 102.802C141.982 102.802 151.165 115.523 141.982 131.772C141.982 131.772 137.738 138.838 127.85 140.249C127.85 140.249 140.571 142.365 141.277 152.265V183.351H117.256V157.203C117.256 157.203 117.256 149.432 109.485 149.432H80.5145V127.528H114.608C115.683 127.528 116.747 127.192 117.603 126.556C118.193 126.117 118.841 125.515 119.373 124.706C120.784 122.589 121.489 115.523 115.834 114.818L80.5029 114.112Z" fill="#111413"/>
<path d="M137.034 93.6191H192.152V114.112H149.755C149.755 114.112 151.872 102.108 137.034 93.6191Z" fill="#111413"/>
<path d="M147.626 127.539H163.875V157.215C163.875 157.215 163.17 160.754 167.414 160.754C171.658 160.754 190.729 160.754 190.729 160.754V183.363H157.514C157.514 183.363 146.909 183.363 146.204 176.297L145.522 150.438C145.499 149.755 145.337 149.096 145.036 148.483C144.122 146.656 141.983 142.735 139.843 141.671V137.427C139.855 137.439 145.51 137.439 147.626 127.539Z" fill="#111413"/>
<path d="M2.28964 128.465V132.246H6.88092V133.796H2.28964V137.67H7.41291V139.313H0.277344V126.834H7.41291V128.465H2.28964Z" fill="#111413"/>
<path d="M17.1273 137.693C16.8381 138.214 16.3871 138.642 15.7857 138.954C15.1843 139.266 14.4442 139.428 13.5768 139.428C12.7326 139.428 11.9693 139.278 11.2985 138.977C10.6278 138.676 10.0958 138.26 9.691 137.716C9.28623 137.173 9.06649 136.548 8.9971 135.843H11.1482C11.206 136.386 11.4373 136.849 11.8421 137.242C12.2469 137.635 12.7904 137.82 13.4727 137.82C14.0857 137.82 14.5598 137.659 14.8952 137.323C15.2306 136.999 15.4041 136.571 15.4041 136.051C15.4041 135.6 15.2769 135.23 15.034 134.952C14.7911 134.675 14.4789 134.432 14.1204 134.27C13.7618 134.108 13.253 133.912 12.6169 133.703C11.8421 133.461 11.206 133.206 10.7203 132.963C10.2346 132.72 9.81821 132.362 9.47126 131.888C9.12431 131.414 8.9624 130.801 8.9624 130.037C8.9624 129.367 9.12431 128.777 9.45969 128.268C9.78351 127.759 10.2577 127.366 10.8706 127.088C11.4836 126.811 12.189 126.672 12.987 126.672C14.2591 126.672 15.2653 126.984 16.017 127.586C16.7687 128.198 17.1966 128.996 17.3007 129.991H15.1265C15.0456 129.517 14.8258 129.112 14.4673 128.777C14.1088 128.441 13.6115 128.268 12.987 128.268C12.4203 128.268 11.9693 128.407 11.6223 128.696C11.287 128.985 11.1135 129.401 11.1135 129.945C11.1135 130.373 11.2291 130.72 11.472 130.997C11.7033 131.275 12.004 131.494 12.3625 131.656C12.721 131.818 13.2183 132.003 13.8428 132.211C14.6292 132.454 15.2769 132.709 15.7741 132.963C16.2714 133.218 16.6993 133.588 17.0463 134.062C17.3932 134.548 17.5667 135.184 17.5667 135.97C17.5783 136.595 17.4279 137.173 17.1273 137.693Z" fill="#111413"/>
<path d="M27.6043 126.834V128.465H24.1232V139.313H22.0878V128.465H18.6299V126.834H27.6043Z" fill="#111413"/>
<path d="M39.0425 136.352C38.5337 137.289 37.7819 138.017 36.7989 138.538C35.8159 139.058 34.6363 139.313 33.2716 139.313H29.0967V126.834H33.2716C34.6363 126.834 35.8159 127.088 36.7989 127.597C37.7819 128.106 38.5337 128.835 39.0425 129.76C39.5514 130.685 39.8058 131.784 39.8058 133.044C39.8174 134.316 39.5629 135.415 39.0425 136.352ZM36.5676 136.317C37.3656 135.542 37.7704 134.455 37.7704 133.044C37.7704 131.633 37.3656 130.558 36.5676 129.771C35.7696 128.985 34.6131 128.603 33.1213 128.603H31.1205V137.474H33.1213C34.6131 137.485 35.7581 137.104 36.5676 136.317Z" fill="#111413"/>
<path d="M242.412 131.065C243.557 129.816 244.136 128.648 244.136 127.572C244.136 126.936 243.985 126.427 243.661 126.057C243.349 125.676 242.84 125.491 242.146 125.491C241.429 125.491 240.886 125.722 240.516 126.185C240.146 126.647 239.949 127.318 239.891 128.174H237.925C238.006 126.751 238.446 125.664 239.244 124.901C240.042 124.149 241.059 123.768 242.297 123.768C243.511 123.768 244.459 124.091 245.153 124.727C245.847 125.364 246.183 126.254 246.183 127.387C246.183 128.289 245.905 129.215 245.338 130.14C244.783 131.065 244.066 131.932 243.21 132.707C242.355 133.482 241.464 134.164 240.539 134.731H246.46V136.373H237.81V134.893C239.741 133.598 241.267 132.314 242.412 131.065Z" fill="#111413"/>
<path d="M248.056 130.152C248.056 128.175 248.414 126.625 249.12 125.503C249.825 124.381 251.005 123.826 252.647 123.826C254.289 123.826 255.469 124.393 256.186 125.515C256.891 126.636 257.25 128.186 257.25 130.152C257.25 132.13 256.891 133.691 256.186 134.813C255.48 135.946 254.301 136.513 252.647 136.513C250.993 136.513 249.825 135.946 249.12 134.824C248.414 133.703 248.056 132.141 248.056 130.152ZM255.237 130.152C255.237 128.741 255.064 127.654 254.706 126.891C254.347 126.128 253.665 125.746 252.658 125.746C251.629 125.746 250.947 126.128 250.588 126.879C250.23 127.631 250.056 128.718 250.056 130.152C250.056 131.586 250.23 132.685 250.588 133.46C250.947 134.223 251.629 134.605 252.658 134.605C253.676 134.605 254.359 134.223 254.706 133.46C255.052 132.696 255.237 131.598 255.237 130.152Z" fill="#111413"/>
<path d="M263.437 131.065C264.582 129.816 265.16 128.648 265.16 127.572C265.16 126.936 265.01 126.427 264.686 126.057C264.374 125.676 263.865 125.491 263.171 125.491C262.454 125.491 261.911 125.722 261.541 126.185C261.171 126.647 260.974 127.318 260.916 128.174H258.95C259.031 126.751 259.471 125.664 260.269 124.901C261.067 124.149 262.084 123.768 263.322 123.768C264.536 123.768 265.484 124.091 266.178 124.727C266.872 125.364 267.208 126.254 267.208 127.387C267.208 128.289 266.93 129.215 266.363 130.14C265.808 131.065 265.091 131.932 264.235 132.707C263.38 133.482 262.489 134.164 261.564 134.731H267.485V136.373H258.834V134.893C260.766 133.598 262.292 132.314 263.437 131.065Z" fill="#111413"/>
<path d="M268.398 125.895V124.01H272.388V136.477H270.271V125.895H268.398Z" fill="#111413"/>
<path d="M136.583 6.44168C195.021 6.44168 244.507 45.4386 260.432 98.7645H267.139C251.03 41.8304 198.594 0 136.583 0C74.5717 0 22.1363 41.8304 6.02637 98.7645H12.734C28.6589 45.4386 78.1453 6.44168 136.583 6.44168Z" fill="#111413"/>
<path d="M136.583 264.895C78.2952 264.895 28.913 226.106 12.8608 172.988H6.1416C22.3903 229.703 74.7101 271.336 136.583 271.336C198.455 271.336 250.775 229.714 267.023 172.988H260.304C244.252 226.094 194.87 264.895 136.583 264.895Z" fill="#111413"/>
<path d="M136.583 215.918C180.83 215.918 216.832 179.916 216.832 135.669C216.832 91.4215 180.83 55.4199 136.583 55.4199C92.3356 55.4199 56.334 91.4215 56.334 135.669C56.334 179.916 92.3356 215.918 136.583 215.918ZM136.583 57.0274C179.952 57.0274 215.225 92.312 215.225 135.669C215.225 179.037 179.94 214.311 136.583 214.311C93.2261 214.311 57.9415 179.026 57.9415 135.669C57.9415 92.3005 93.2146 57.0274 136.583 57.0274Z" fill="#111413"/>
<path d="M229.229 80.3875C232.722 86.2394 235.636 92.3919 237.949 98.7642H239.661C237.279 92.1028 234.26 85.6727 230.606 79.5664L229.229 80.3875Z" fill="#111413"/>
<path d="M220.266 206.249C228.65 196.326 235.127 185.039 239.498 172.977H237.787C233.485 184.646 227.17 195.574 219.04 205.208L220.266 206.249Z" fill="#111413"/>
<path d="M54.1229 205.208C45.9928 195.586 39.6783 184.657 35.3762 172.977H33.6646C38.0361 185.027 44.5125 196.315 52.897 206.249L54.1229 205.208Z" fill="#111413"/>
<path d="M42.5485 79.5664C38.894 85.6727 35.8755 92.1144 33.4932 98.7642H35.2048C37.5178 92.3919 40.4206 86.2394 43.9247 80.3875L42.5485 79.5664Z" fill="#111413"/>
<path d="M228.487 135.668C228.487 127.723 227.47 119.998 225.562 112.643V158.694C227.47 151.339 228.487 143.613 228.487 135.668Z" fill="#111413"/>
<path d="M44.6763 135.668C44.6763 141.937 45.3123 148.066 46.5151 153.987V117.35C45.3123 123.271 44.6763 129.4 44.6763 135.668Z" fill="#111413"/>
<path d="M136.583 227.575C179.304 227.575 215.317 198.269 225.563 158.694V112.642C215.317 73.0788 179.304 43.7617 136.583 43.7617C92.1735 43.7617 55.0269 75.4149 46.5151 117.349V153.976C55.0269 195.91 92.1735 227.575 136.583 227.575ZM136.583 50.2034C183.71 50.2034 222.048 88.5411 222.048 135.668C222.048 182.795 183.71 221.133 136.583 221.133C89.4557 221.133 51.118 182.795 51.118 135.668C51.118 88.5411 89.4557 50.2034 136.583 50.2034Z" fill="#111413"/>
<path d="M273.165 147.105H234.723V148.713H273.165V147.105Z" fill="#111413"/>
<path d="M38.4418 147.105H0V148.713H38.4418V147.105Z" fill="#111413"/>
<path d="M175.417 31.2266L174.168 27.4102L172.931 31.2266H168.918L171.705 33.2504L172.168 33.5858L170.93 37.4023L174.168 35.043L175.799 36.2226L177.418 37.4023L176.181 33.5858L179.419 31.2266H175.417Z" fill="#111413"/>
<path d="M99.8048 31.2266L98.5674 27.4102L97.3299 31.2266H93.3169L96.5667 33.5858L95.3292 37.4023L98.5674 35.043L101.817 37.4023L100.58 33.5858L103.818 31.2266H99.8048Z" fill="#111413"/>
<path d="M175.417 235.994L174.168 232.189L172.931 235.994H168.918L171.705 238.018L172.168 238.354L170.93 242.17L174.168 239.811L175.799 241.002L177.418 242.17L176.181 238.354L179.419 235.994H175.417Z" fill="#111413"/>
<path d="M99.8048 235.994L98.5674 232.189L97.3299 235.994H93.3169L96.5667 238.354L95.3292 242.17L98.5674 239.811L101.817 242.17L100.58 238.354L103.818 235.994H99.8048Z" fill="#111413"/>
<path d="M147.557 22.1697H139.507L137.009 14.5137L135.309 19.7757L134.523 22.1697H126.474L132.996 26.8997L130.498 34.5557L135.309 31.0747L137.009 29.8257L142.364 33.723L143.52 34.5557L141.913 29.5828L141.045 26.8997L141.693 26.4256L147.557 22.1697Z" fill="#111413"/>
<path d="M147.557 242.308H139.507L137.009 234.652L135.309 239.914L134.523 242.308H126.474L132.996 247.038L130.498 254.694L135.309 251.213L137.009 249.964L142.364 253.862L143.52 254.694L141.913 249.721L141.045 247.038L141.693 246.564L147.557 242.308Z" fill="#111413"/>
<path d="M354.43 121.709C349.619 121.709 345.791 120.946 343.652 116.366C341.362 111.625 339.985 108.271 337.083 100.546C336.851 100.546 336.62 100.546 336.319 100.546H332.191V110.711C332.191 114.458 334.712 115.372 334.712 117.974C334.712 118.124 334.712 118.055 334.712 118.124C334.712 120.946 329.97 121.721 324.396 121.721C318.822 121.721 313.999 120.958 313.999 118.124C313.999 118.043 313.999 118.124 313.999 117.974C313.999 115.372 316.601 114.458 316.601 110.711V79.0001C316.601 75.253 313.999 74.3394 313.999 71.7373C313.999 71.6563 313.999 71.7373 313.999 71.6563C313.999 68.8345 317.283 67.9902 321.482 67.9902H336.308C350.058 67.9902 359.31 74.1081 359.31 84.5743C359.31 90.5303 356.257 94.9712 350.984 97.6427C357.865 113.232 363.74 112.157 364.121 116.285C364.445 119.269 360.93 121.709 354.43 121.709ZM342.738 84.5743C342.738 78.4565 339.904 74.0271 335.938 74.0271C333.417 74.0271 332.191 75.253 332.191 78.9885V94.4971H334.33C339.916 94.5086 342.738 90.3799 342.738 84.5743Z" fill="#111413"/>
<path d="M422.061 94.7415C422.061 111.707 409.606 122.254 393.484 122.254C377.826 122.254 365.37 111.707 365.37 94.7415C365.37 77.7757 377.294 67.2285 393.484 67.2285C409.606 67.2285 422.061 77.7757 422.061 94.7415ZM403.719 93.8163C402.644 81.6616 397.914 73.6471 391.646 74.1791C385.377 74.711 382.093 83.4194 383.169 95.6551C384.244 107.891 388.974 115.905 395.242 115.292C401.499 114.76 404.795 106.052 403.719 93.8163Z" fill="#111413"/>
<path d="M475.551 117.732C475.551 117.882 475.551 117.732 475.551 117.882C475.551 120.785 472.186 121.698 465.316 121.698C459.811 121.698 454.699 121.398 454.699 118.564C454.699 118.483 454.699 118.564 454.699 118.483C454.699 115.881 456.758 114.817 455.312 111.22L453.404 106.329H435.606L434.079 110.758C432.552 115.037 434.923 115.5 434.923 117.94C434.923 118.09 434.923 118.021 434.923 118.09C434.923 120.692 431.489 121.687 428.042 121.687C424.908 121.687 421.705 120.692 421.705 118.321C421.705 118.24 421.705 118.321 421.705 118.171C421.705 115.569 425.602 114.193 427.048 110.226L439.121 78.6652C440.417 75.2304 438.589 74.0855 438.589 71.4834C438.589 71.333 438.589 71.4834 438.589 71.333C438.589 68.5112 442.186 67.7363 446.303 67.7363C451.877 67.7363 453.635 68.65 455.012 71.9344L470.601 109.301C472.116 113.152 475.551 114.378 475.551 117.732ZM451.022 100.234L443.99 82.3544L437.722 100.234H451.022Z" fill="#111413"/>
<path d="M530.726 94.7417C530.726 109.568 520.641 121.48 499.709 121.48H485.264C481.136 121.48 477.851 120.717 477.851 117.883C477.851 117.733 477.851 117.883 477.851 117.733C477.851 115.131 480.453 114.217 480.453 110.47V78.9903C480.453 75.2432 477.851 74.3296 477.851 71.7275C477.851 71.6465 477.851 71.7275 477.851 71.6466C477.851 68.7438 481.136 67.9805 485.264 67.9805H499.709C520.63 67.992 530.726 79.9155 530.726 94.7417ZM513.61 94.7417C513.61 83.6625 509.03 74.0289 499.778 74.0289C497.176 74.0289 496.031 75.2548 496.031 78.9903V110.47C496.031 114.217 497.176 115.431 499.778 115.431C509.019 115.443 513.61 105.821 513.61 94.7417Z" fill="#111413"/>
<path d="M580.849 84.193C580.768 84.193 580.849 84.193 580.698 84.193C575.575 84.193 574.893 74.0275 567.711 74.0275H565.491V110.7C565.491 114.447 568.093 115.361 568.093 117.963C568.093 118.113 568.093 118.044 568.093 118.113C568.093 120.935 563.282 121.71 557.696 121.71C552.11 121.71 547.38 120.946 547.38 118.113C547.38 118.032 547.38 118.113 547.38 117.963C547.38 115.361 549.982 114.447 549.982 110.7V74.0275H547.761C540.58 74.0275 539.897 84.193 534.693 84.193C534.612 84.193 534.693 84.193 534.612 84.193C532.935 84.193 532.01 82.9672 532.322 80.2957C532.554 77.8555 533.386 72.9635 533.93 70.211C534.392 67.7708 535.375 66.6953 537.596 66.6953C540.198 66.6953 541.193 67.9906 545.24 67.9906H570.221C574.268 67.9906 575.182 66.6953 577.865 66.6953C580.004 66.6953 580.999 67.7593 581.531 70.211C582.063 72.9635 582.826 77.8555 583.139 80.2957C583.451 82.9672 582.456 84.193 580.849 84.193Z" fill="#111413"/>
<path d="M627.837 121.709C623.026 121.709 619.198 120.946 617.058 116.366C614.768 111.625 613.392 108.271 610.489 100.546C610.258 100.546 610.027 100.546 609.726 100.546H605.597V110.711C605.597 114.458 608.119 115.372 608.119 117.974C608.119 118.124 608.119 118.055 608.119 118.124C608.119 120.946 603.377 121.721 597.803 121.721C592.228 121.721 587.406 120.958 587.406 118.124C587.406 118.043 587.406 118.124 587.406 117.974C587.406 115.372 590.008 114.458 590.008 110.711V79.0001C590.008 75.253 587.406 74.3394 587.406 71.7373C587.406 71.6563 587.406 71.7373 587.406 71.6563C587.406 68.8345 590.69 67.9902 594.888 67.9902H609.715C623.465 67.9902 632.717 74.1081 632.717 84.5743C632.717 90.5303 629.664 94.9712 624.39 97.6427C631.272 113.232 637.147 112.157 637.528 116.285C637.852 119.269 634.336 121.709 627.837 121.709ZM616.156 84.5743C616.156 78.4565 613.323 74.0271 609.356 74.0271C606.835 74.0271 605.609 75.253 605.609 78.9885V94.4971H607.749C613.323 94.5086 616.156 90.3799 616.156 84.5743Z" fill="#111413"/>
<path d="M658.021 78.2358V110.71C658.021 114.457 660.623 115.371 660.623 117.973C660.623 118.123 660.623 118.054 660.623 118.123C660.623 120.945 655.882 121.72 650.308 121.72C644.733 121.72 639.911 120.957 639.911 118.123C639.911 118.042 639.911 118.123 639.911 117.973C639.911 115.371 642.513 114.457 642.513 110.71V78.2358C642.513 74.5697 639.911 73.6561 639.911 71.054C639.911 70.9036 639.911 70.973 639.911 70.9036C639.911 68.0818 644.722 67.7695 650.308 67.7695C655.893 67.7695 660.623 68.0702 660.623 70.9036C660.623 70.9846 660.623 70.9036 660.623 71.054C660.623 73.6445 658.021 74.5582 658.021 78.2358Z" fill="#111413"/>
<path d="M710.294 85.5689C710.294 95.9658 701.505 103.067 687.835 103.067H684.169V111.243C684.169 114.447 687.222 115.603 687.222 118.506C687.222 118.587 687.222 118.506 687.222 118.587C687.222 121.339 683.093 121.721 676.374 121.721C670.8 121.721 665.977 121.49 665.977 118.587C665.977 118.506 665.977 118.587 665.977 118.506C665.977 115.904 668.579 114.99 668.579 111.243V79.0001C668.579 75.253 665.977 74.3394 665.977 71.7373C665.977 71.6563 665.977 71.7373 665.977 71.6563C665.977 68.8345 669.262 67.9902 673.39 67.9902H687.835C701.505 67.9902 710.294 75.1027 710.294 85.5689ZM694.704 85.5689C694.704 79.4511 692.102 74.0271 687.904 74.0271C685.302 74.0271 684.157 75.253 684.157 78.9885V97.0182H685.834C692.102 97.0298 694.704 91.3745 694.704 85.5689Z" fill="#111413"/>
<path d="M363.602 199.114C360.549 208.285 352.291 213.94 341.744 213.94C326.467 213.94 312.022 204.7 312.936 185.444C313.699 169.01 326.455 158.926 341.744 158.926C348.775 158.926 351.447 161.297 356.57 159.388C359.172 158.394 361.532 159.469 361.994 161.91C362.607 164.731 363.37 173.602 363.671 176.042C363.972 178.644 362.989 179.939 361.381 179.939C361.231 179.939 361.381 179.939 361.231 179.939C356.038 179.939 354.963 164.731 343.733 164.731C335.788 164.731 329.52 172.757 330.214 182.911C331.509 203.162 349.701 205.371 357.727 196.812C359.334 195.055 361.092 194.904 362.237 195.436C363.301 195.91 364.296 197.136 363.602 199.114Z" fill="#111413"/>
<path d="M424.352 186.439C424.352 203.405 411.897 213.952 395.775 213.952C380.116 213.952 367.661 203.405 367.661 186.439C367.661 169.473 379.584 158.926 395.775 158.926C411.897 158.926 424.352 169.473 424.352 186.439ZM406.01 185.514C404.934 173.359 400.204 165.344 393.936 165.876C387.668 166.408 384.384 175.117 385.459 187.352C386.535 199.588 391.265 207.603 397.533 206.99C403.801 206.458 407.086 197.738 406.01 185.514Z" fill="#111413"/>
<path d="M488.618 169.923V202.398C488.618 206.145 491.22 207.058 491.22 209.66C491.22 209.811 491.22 209.741 491.22 209.811C491.22 212.633 486.409 213.407 480.905 213.407C475.33 213.407 470.508 212.644 470.508 209.811C470.508 209.73 470.508 209.811 470.508 209.66C470.508 207.058 473.11 206.145 473.11 202.398V170.305C468.53 181.916 461.337 199.726 460.041 202.86C458.896 205.682 457.601 206.457 455.462 206.457C453.623 206.457 451.715 205.925 450.188 202.56C449.124 200.038 441.78 183.385 437.964 174.746V202.409C437.964 206.156 441.329 207.07 441.329 209.672C441.329 209.822 441.329 209.753 441.329 209.822C441.329 212.424 438.346 213.419 434.911 213.419C431.476 213.419 428.573 212.424 428.573 209.822C428.573 209.741 428.573 209.822 428.573 209.672C428.573 207.07 431.939 206.156 431.939 202.409V170.467C431.939 166.72 429.036 165.806 429.036 163.204C429.036 163.054 429.036 163.204 429.036 163.054C429.036 160.232 432.32 159.457 436.449 159.457C447.066 159.457 447.829 161.897 449.436 165.494C450.5 168.015 456.086 181.234 459.29 188.948C459.29 188.948 468.148 167.09 469.305 164.499C470.912 160.903 473.121 159.457 480.916 159.457C486.421 159.457 491.232 159.758 491.232 162.591C491.232 162.672 491.232 162.591 491.232 162.741C491.209 165.344 488.618 166.257 488.618 169.923Z" fill="#111413"/>
<path d="M556.621 169.923V202.398C556.621 206.145 559.223 207.058 559.223 209.66C559.223 209.811 559.223 209.741 559.223 209.811C559.223 212.633 554.412 213.407 548.907 213.407C543.333 213.407 538.51 212.644 538.51 209.811C538.51 209.73 538.51 209.811 538.51 209.66C538.51 207.058 541.112 206.145 541.112 202.398V170.305C536.533 181.916 529.351 199.726 528.044 202.86C526.899 205.682 525.604 206.457 523.464 206.457C521.625 206.457 519.717 205.925 518.191 202.56C517.115 200.038 509.783 183.385 505.966 174.746V202.409C505.966 206.156 509.332 207.07 509.332 209.672C509.332 209.822 509.332 209.753 509.332 209.822C509.332 212.424 506.348 213.419 502.913 213.419C499.478 213.419 496.576 212.424 496.576 209.822C496.576 209.741 496.576 209.822 496.576 209.672C496.576 207.07 499.941 206.156 499.941 202.409V170.467C499.941 166.72 497.038 165.806 497.038 163.204C497.038 163.054 497.038 163.204 497.038 163.054C497.038 160.232 500.323 159.457 504.451 159.457C515.068 159.457 515.831 161.897 517.439 165.494C518.503 168.015 524.089 181.234 527.292 188.948C527.292 188.948 536.151 167.09 537.307 164.499C538.915 160.903 541.124 159.457 548.919 159.457C554.423 159.457 559.234 159.758 559.234 162.591C559.234 162.672 559.234 162.591 559.234 162.741C559.223 165.344 556.621 166.257 556.621 169.923Z" fill="#111413"/>
<path d="M615.312 163.054C615.312 163.204 615.312 163.054 615.312 163.204C615.312 165.806 611.947 166.72 611.947 170.467V192.625C611.947 205.081 604.684 214.02 590.934 214.02C578.096 214.02 567.168 207.139 567.168 193.088V169.935C567.168 166.269 564.565 165.355 564.565 162.753C564.565 162.603 564.565 162.672 564.565 162.603C564.565 159.781 569.376 159.469 574.881 159.469C580.456 159.469 585.278 159.769 585.278 162.603C585.278 162.684 585.278 162.603 585.278 162.753C585.278 165.355 582.676 166.269 582.676 169.935V193.088C582.676 203.173 588.181 207.683 594.9 207.683C601.932 207.683 605.899 201.877 605.899 192.857V170.467C605.899 166.72 602.533 165.806 602.533 163.204C602.533 163.054 602.533 163.204 602.533 163.054C602.533 160.452 605.436 159.457 608.871 159.457C612.329 159.457 615.312 160.452 615.312 163.054Z" fill="#111413"/>
<path d="M671.853 163.053C671.853 163.204 671.853 163.053 671.853 163.204C671.853 165.806 668.569 166.719 668.569 170.467V207.22C668.569 211.649 666.579 213.407 663.526 213.407C659.71 213.407 658.183 212.112 655.731 209.047C653.361 206.144 637.239 185.362 629.294 175.116V202.397C629.294 206.144 632.659 207.058 632.659 209.66C632.659 209.81 632.659 209.741 632.659 209.81C632.659 212.413 629.757 213.407 626.322 213.407C622.887 213.407 619.903 212.413 619.903 209.81C619.903 209.729 619.903 209.81 619.903 209.66C619.903 207.058 623.269 206.144 623.269 202.397V170.455C623.269 166.708 620.447 165.794 620.447 163.192C620.447 163.042 620.447 163.192 620.447 163.042C620.447 160.22 623.731 159.445 627.86 159.445C635.736 159.445 637.112 160.671 639.783 164.025C641.391 166.083 654.991 183.812 662.474 193.446V170.443C662.474 166.696 659.189 165.783 659.189 163.181C659.189 163.03 659.189 163.181 659.189 163.03C659.189 160.428 662.092 159.434 665.527 159.434C668.95 159.457 671.853 160.451 671.853 163.053Z" fill="#111413"/>
<path d="M694.555 169.923V202.398C694.555 206.145 697.158 207.058 697.158 209.66C697.158 209.811 697.158 209.741 697.158 209.811C697.158 212.633 692.416 213.407 686.842 213.407C681.267 213.407 676.445 212.644 676.445 209.811C676.445 209.73 676.445 209.811 676.445 209.66C676.445 207.058 679.047 206.145 679.047 202.398V169.923C679.047 166.257 676.445 165.344 676.445 162.741C676.445 162.591 676.445 162.661 676.445 162.591C676.445 159.769 681.256 159.457 686.842 159.457C692.428 159.457 697.158 159.758 697.158 162.591C697.158 162.672 697.158 162.591 697.158 162.741C697.146 165.344 694.555 166.257 694.555 169.923Z" fill="#111413"/>
<path d="M749.189 175.892C749.108 175.892 749.189 175.892 749.039 175.892C743.915 175.892 743.233 165.727 736.051 165.727H733.831V202.399C733.831 206.146 736.433 207.06 736.433 209.662C736.433 209.812 736.433 209.743 736.433 209.812C736.433 212.634 731.622 213.409 726.036 213.409C720.45 213.409 715.72 212.646 715.72 209.812C715.72 209.731 715.72 209.812 715.72 209.662C715.72 207.06 718.322 206.146 718.322 202.399V165.727H716.102C708.92 165.727 708.238 175.892 703.033 175.892C702.952 175.892 703.033 175.892 702.952 175.892C701.276 175.892 700.35 174.666 700.663 171.995C700.894 169.555 701.727 164.663 702.27 161.91C702.733 159.47 703.716 158.395 705.936 158.395C708.538 158.395 709.533 159.69 713.581 159.69H738.561C742.609 159.69 743.522 158.395 746.205 158.395C748.345 158.395 749.339 159.458 749.871 161.91C750.403 164.663 751.167 169.555 751.479 171.995C751.791 174.666 750.797 175.892 749.189 175.892Z" fill="#111413"/>
<path d="M801 162.822C801 162.903 801 162.822 801 162.973C801 165.575 797.334 167.171 795.426 170.918L785.411 190.254V202.941C785.411 206.688 788.013 207.602 788.013 210.204C788.013 210.285 788.013 210.204 788.013 210.285C788.013 213.188 783.202 213.419 777.616 213.419C772.03 213.419 767.3 213.188 767.3 210.285C767.3 210.204 767.3 210.285 767.3 210.204C767.3 207.602 769.902 206.688 769.902 202.941V192.394L757.909 172.456C755.689 168.871 752.335 166.882 752.335 163.435C752.335 163.354 752.335 163.435 752.335 163.354C752.335 160.371 755.7 159.457 762.57 159.457C768.075 159.457 774.181 159.758 774.181 162.591C774.181 162.672 774.181 162.591 774.181 162.741C774.181 165.344 771.579 166.327 773.337 169.773L781.432 185.594L788.383 170.386C790.441 166.026 787.77 165.644 787.77 163.204C787.77 163.054 787.77 163.204 787.77 163.054C787.77 160.452 791.205 159.457 794.651 159.457C797.785 159.457 801 160.452 801 162.822Z" fill="#111413"/>
</svg>
