<svg width="200" height="38" viewBox="0 0 200 38" fill="none" xmlns="http://www.w3.org/2000/svg">
<g clip-path="url(#clip0_776_1657)">
<path d="M18.3971 0H8.08651L8.06676 0.0364655L6.64377 2.67315H18.3971C27.1033 2.67315 34.1656 9.85463 34.1656 18.7135C34.1656 27.5724 27.1055 34.7539 18.3971 34.7539C9.68874 34.7539 2.62795 27.5717 2.62795 18.7135C2.62724 17.0378 2.88522 15.3723 3.39249 13.778H6.40307C4.2689 19.1426 5.83017 25.2957 10.2501 28.9396C14.67 32.5835 20.9113 32.8629 25.6289 29.6282C30.3464 26.3934 32.4332 20.4036 30.7706 14.8691C29.1081 9.33451 24.0864 5.55407 18.3971 5.55393H5.08983L3.64782 8.22633H18.3971C23.0304 8.22729 27.0938 11.3725 28.3298 15.9147C29.5659 20.4568 27.6709 25.2798 23.6976 27.7041C19.7243 30.1284 14.6491 29.5584 11.2915 26.3107C7.93393 23.063 7.11902 17.9357 9.29953 13.7773H12.7103C10.4337 16.4958 10.3236 20.4596 12.4456 23.3045C14.5676 26.1495 18.35 27.1092 21.537 25.6111C24.724 24.113 26.4567 20.561 25.7019 17.0733C24.947 13.5857 21.9079 11.1022 18.3971 11.1041H2.09387L0.651135 13.778C0.219275 15.3864 0.000298749 17.0462 0 18.7135C0 29.0482 8.23649 37.427 18.3971 37.427C28.5578 37.427 36.7943 29.0482 36.7943 18.7135C36.7943 8.37889 28.557 0 18.3971 0ZM18.3971 13.778C21.0768 13.778 23.2492 15.9877 23.2492 18.7135C23.2492 21.4393 21.0768 23.649 18.3971 23.649C15.7174 23.649 13.5451 21.4393 13.5451 18.7135C13.5451 15.9877 15.7174 13.778 18.3971 13.778ZM44.8808 19.1087C44.8808 13.9097 48.3098 10.2572 53.4523 10.2572C56.6224 10.2572 59.2101 11.6712 60.5687 14.0415L57.5933 16.1803C56.6546 14.6658 55.2316 13.9425 53.5496 13.9425C50.7695 13.9425 48.9244 15.9518 48.9244 19.1087C48.9244 22.2343 50.768 24.2741 53.5496 24.2741C55.2323 24.2741 56.6546 23.5173 57.5933 22.0036L60.5687 24.1424C59.2101 26.5447 56.6224 27.9267 53.4523 27.9267C48.3098 27.9267 44.8808 24.2741 44.8808 19.1087ZM61.1277 19.1087C61.1277 14.2387 64.5246 10.2572 69.7973 10.2572C75.1022 10.2572 78.4662 14.2387 78.4662 19.1087C78.4662 23.946 75.1007 27.9267 69.7973 27.9267C64.5282 27.9267 61.1277 23.9452 61.1277 19.1087ZM74.4225 19.1087C74.4225 16.0486 72.6433 13.9097 69.7973 13.9097C66.9513 13.9097 65.1713 16.0486 65.1713 19.1087C65.1713 22.1353 66.9506 24.2741 69.7973 24.2741C72.644 24.2741 74.4225 22.1353 74.4225 19.1087ZM104.37 10.7164L99.3215 27.4645H95.0591L91.4911 15.6519L87.8915 27.4645H83.6233L78.6044 10.7164H82.52L85.9301 22.7917L89.5925 10.7164H93.3815L97.0447 22.7917L100.423 10.7164H104.37ZM159.821 10.7164L154.769 27.4645H150.507L146.938 15.6519L143.339 27.4645H139.08L134.059 10.7201H137.975L141.385 22.7954L145.044 10.7164H148.833L152.496 22.7917L155.874 10.7164H159.821ZM116.18 10.6524V14.4031C115.581 14.3022 114.976 14.2472 114.369 14.2387C111.49 14.2387 109.969 15.7196 109.969 19.2069V27.4675H106.025V10.7164H109.903V13.5146C110.712 11.5737 112.491 10.4217 114.755 10.4217C115.24 10.4121 115.722 10.4902 116.18 10.6524ZM132.553 10.7164V25.7864C132.553 31.4132 129.48 34.5053 124.045 34.5053C121.231 34.5053 118.643 33.6503 117.09 32.1693L118.869 29.2409C120.26 30.3572 122.072 30.9191 123.819 30.9191C126.859 30.9191 128.671 29.1754 128.671 25.7841V24.3396C127.733 26.1823 125.728 27.3008 123.301 27.3008C119.807 27.3008 117.608 25.0637 117.608 20.9833V10.7164H121.554V19.9638C121.554 22.5305 122.59 23.649 124.659 23.649C127.053 23.649 128.639 22.1688 128.639 19.7331V10.7164H132.553ZM160.86 5.42071C160.86 3.97251 161.863 2.91948 163.383 2.91948C164.87 2.91948 165.87 3.97251 165.87 5.42071C165.87 6.86892 164.867 7.92121 163.383 7.92121C161.863 7.92121 160.86 6.86817 160.86 5.42071ZM161.41 10.7179H165.356V27.466H161.41V10.7179ZM167.342 24.7348L169.477 22.2008C170.77 23.649 172.776 24.5041 174.879 24.5041C176.755 24.5041 177.79 23.7807 177.79 22.7277C177.79 21.8391 177.142 21.2803 175.493 20.8851L172.808 20.26C169.379 19.4376 167.924 17.825 167.924 15.5217C167.924 12.4288 170.447 10.2572 174.717 10.2572C177.628 10.2572 180.054 11.2768 181.477 12.9229L179.375 15.5217C177.952 14.2714 176.334 13.679 174.619 13.679C172.775 13.679 171.87 14.3704 171.87 15.3907C171.87 16.1803 172.419 16.6737 174.166 17.0681L177.013 17.7595C180.473 18.5491 181.735 20.161 181.735 22.4643C181.735 25.7878 179.212 27.9267 174.846 27.9267C171.579 27.9267 168.83 26.6764 167.342 24.7348ZM199.261 20.2927H187C187.421 22.9912 189.167 24.4386 191.852 24.4386C193.696 24.4386 195.248 23.748 196.445 22.3325L198.807 24.7021C197.254 26.7419 194.763 27.9267 191.723 27.9267C186.482 27.9267 182.989 24.4386 182.989 19.1742C182.989 13.9752 186.354 10.2572 191.335 10.2572C196.122 10.2572 199.356 13.6463 199.356 18.7463C199.356 19.2632 199.324 19.7797 199.261 20.2927ZM187 17.563H195.414C195.22 15.0945 193.731 13.746 191.371 13.746C188.943 13.7453 187.422 15.16 187 17.563Z" fill="#231F20"/>
</g>
<defs>
<clipPath id="clip0_776_1657">
<rect width="199.356" height="37.427" fill="white"/>
</clipPath>
</defs>
</svg>
