<svg width="167" height="46" viewBox="0 0 167 46" fill="none" xmlns="http://www.w3.org/2000/svg">
<g clip-path="url(#clip0_776_1659)">
<path fill-rule="evenodd" clip-rule="evenodd" d="M55.0648 23.7588L55.6273 20.5567C55.6273 20.5567 51.2962 19.1501 47.7712 21.7588V34.5684H51.5145V24.1611C53.0061 22.9591 55.0648 23.7588 55.0648 23.7588Z" fill="#231F20"/>
<mask id="mask0_776_1659" style="mask-type:alpha" maskUnits="userSpaceOnUse" x="47" y="20" width="9" height="15">
<path d="M47.7711 21.7588C49.4671 20.5039 51.3499 20.1781 52.8469 20.1784C54.4613 20.1784 55.6274 20.5569 55.6274 20.5569L55.0647 23.7591C55.0647 23.7591 53.006 22.9593 51.5144 24.1611V34.5684H47.7711V21.7588Z" fill="#03435F"/>
</mask>
<g mask="url(#mask0_776_1659)">
<path fill-rule="evenodd" clip-rule="evenodd" d="M-180.092 74.2705L347.052 74.2705V-672.516H-180.092L-180.092 74.2705Z" fill="#231F20"/>
</g>
<mask id="mask1_776_1659" style="mask-type:alpha" maskUnits="userSpaceOnUse" x="47" y="20" width="9" height="15">
<path d="M47.7711 21.7588C49.4671 20.5039 51.3496 20.1784 52.8469 20.1784C54.4613 20.1784 55.6274 20.5569 55.6274 20.5569L55.0647 23.7591C55.0647 23.7591 53.006 22.9593 51.5144 24.1611V34.5684H47.7711V21.7588Z" fill="#03435F"/>
</mask>
<g mask="url(#mask1_776_1659)">
<path fill-rule="evenodd" clip-rule="evenodd" d="M41.4958 40.8438H61.9031V13.9025H41.4958V40.8438Z" fill="#231F20"/>
</g>
<path fill-rule="evenodd" clip-rule="evenodd" d="M22.7938 16.9056L26.5353 16.2007V20.3668H30.2377V23.6984H26.5353V28.6669C26.5353 29.5133 26.6722 30.1852 26.9521 30.6821C27.2287 31.1866 27.7836 31.4366 28.6168 31.4366C29.0242 31.4366 29.4334 31.3975 29.865 31.3146C30.2844 31.2303 30.6755 31.122 31.0274 30.9803L31.5569 34.101C31.104 34.2953 30.6034 34.464 30.0515 34.6069C29.4979 34.7484 28.8182 34.8223 28.015 34.8223C26.9941 34.8223 26.1504 34.6734 25.4795 34.3782C24.8119 34.0829 24.2752 33.6686 23.8751 33.14C23.475 32.6159 23.1937 31.9729 23.0358 31.2198C22.875 30.4682 22.7938 29.6382 22.7938 28.7226V16.9056Z" fill="#231F20"/>
<mask id="mask2_776_1659" style="mask-type:alpha" maskUnits="userSpaceOnUse" x="22" y="16" width="10" height="19">
<path d="M22.7939 16.9056L26.5355 16.2007V20.3668H30.2379V23.6984H26.5355V28.6669C26.5355 29.5136 26.6723 30.1852 26.952 30.6821C27.2286 31.1868 27.7834 31.4366 28.6167 31.4366C29.0241 31.4366 29.433 31.3975 29.8649 31.3146C30.2843 31.2303 30.6756 31.122 31.0276 30.9805L31.5567 34.101C31.1041 34.2955 30.6033 34.4642 30.0514 34.6072C29.4978 34.7487 28.8181 34.8223 28.0149 34.8223C26.9937 34.8223 26.1503 34.6734 25.4796 34.3782C24.8118 34.0829 24.2749 33.6686 23.875 33.1402C23.4749 32.6159 23.1938 31.9729 23.0359 31.2198C22.8748 30.4682 22.7939 29.6384 22.7939 28.7226V16.9056Z" fill="#03435F"/>
</mask>
<g mask="url(#mask2_776_1659)">
<path fill-rule="evenodd" clip-rule="evenodd" d="M-180.092 74.2705L347.052 74.2705V-672.516H-180.092L-180.092 74.2705Z" fill="#231F20"/>
</g>
<mask id="mask3_776_1659" style="mask-type:alpha" maskUnits="userSpaceOnUse" x="22" y="16" width="10" height="19">
<path d="M22.7939 16.9056L26.5355 16.2007V20.3668H30.2379V23.6984H26.5355V28.6669C26.5355 29.5136 26.6723 30.1852 26.952 30.6821C27.2286 31.1868 27.7834 31.4366 28.6167 31.4366C29.0241 31.4366 29.433 31.3975 29.8649 31.3146C30.2843 31.2303 30.6756 31.122 31.0276 30.9805L31.5567 34.101C31.1041 34.2955 30.6033 34.4642 30.0514 34.6072C29.4978 34.7487 28.8181 34.8223 28.0149 34.8223C26.9937 34.8223 26.1503 34.6734 25.4796 34.3782C24.8118 34.0829 24.2749 33.6686 23.875 33.1402C23.4749 32.6159 23.1938 31.9729 23.0359 31.2198C22.8748 30.4682 22.7939 29.6384 22.7939 28.7226V16.9056Z" fill="#03435F"/>
</mask>
<g mask="url(#mask3_776_1659)">
<path fill-rule="evenodd" clip-rule="evenodd" d="M16.5181 41.0977H37.832V9.92478H16.5181L16.5181 41.0977Z" fill="#231F20"/>
</g>
<path fill-rule="evenodd" clip-rule="evenodd" d="M61.1691 31.7002C61.8535 31.7002 62.3376 31.6247 62.6251 31.4832C62.9106 31.3402 63.0489 31.0601 63.0489 30.6504C63.0489 30.3266 62.8685 30.045 62.4985 29.8055C62.1287 29.5616 61.5721 29.2905 60.8174 28.9816C60.2322 28.7481 59.6999 28.5074 59.2201 28.2588C58.7465 28.0059 58.3405 27.7106 58.0051 27.3596C57.671 27.0104 57.4124 26.5914 57.2259 26.1036C57.0394 25.6245 56.951 25.0447 56.951 24.3609C56.951 23.0369 57.4124 21.9871 58.3314 21.2174C59.2517 20.4509 60.5121 20.0594 62.1211 20.0594C62.9257 20.0594 63.6956 20.1361 64.4326 20.2913C65.168 20.4419 65.7561 20.6137 66.1874 20.7868L65.5363 23.9043C65.1003 23.7432 64.6266 23.6017 64.1168 23.4783C63.6069 23.3519 63.0325 23.2855 62.3978 23.2855C61.2263 23.2855 60.6397 23.6379 60.6397 24.3352C60.6397 24.4963 60.6654 24.6395 60.7164 24.7644C60.7675 24.891 60.867 25.0115 61.0144 25.1274C61.1691 25.242 61.3708 25.3713 61.6323 25.504C61.8923 25.6441 62.2233 25.7885 62.6251 25.9528C63.4414 26.2781 64.1197 26.5944 64.6552 26.9138C65.1919 27.233 65.6131 27.5691 65.9244 27.9423C66.2341 28.307 66.4539 28.7108 66.5771 29.1593C66.7005 29.6068 66.765 30.1232 66.765 30.7123C66.765 32.1084 66.2747 33.164 65.2988 33.878C64.3182 34.589 62.9316 34.9473 61.1405 34.9473C59.9705 34.9473 58.996 34.8434 58.2185 34.6251C57.4381 34.4127 56.8996 34.2292 56.599 34.0874L57.2259 30.8372C57.8592 31.1053 58.5179 31.313 59.1827 31.47C59.8564 31.6235 60.5121 31.7002 61.1691 31.7002Z" fill="#231F20"/>
<mask id="mask4_776_1659" style="mask-type:alpha" maskUnits="userSpaceOnUse" x="56" y="20" width="11" height="15">
<path d="M58.3314 21.2177C59.2519 20.4509 60.5121 20.0594 62.1211 20.0594C62.926 20.0594 63.6959 20.1361 64.4328 20.2913C65.168 20.4419 65.7561 20.6135 66.1877 20.7868L65.5366 23.9043C65.1003 23.7432 64.6269 23.6017 64.1168 23.4783C63.6071 23.3517 63.0325 23.2857 62.398 23.2857C61.2263 23.2857 60.6399 23.6377 60.6399 24.3352C60.6399 24.4963 60.6654 24.6395 60.7164 24.7644C60.7678 24.891 60.8672 25.0115 61.0146 25.1274C61.1691 25.242 61.371 25.3713 61.6325 25.504C61.8926 25.6438 62.2233 25.7888 62.6251 25.9528C63.4417 26.2781 64.1199 26.5944 64.6552 26.9138C65.1922 27.233 65.6133 27.5688 65.9247 27.9423C66.2344 28.307 66.4539 28.7105 66.5773 29.1593C66.7007 29.6068 66.765 30.1232 66.765 30.7123C66.765 32.1084 66.2747 33.1643 65.299 33.878C64.3184 34.589 62.9318 34.9473 61.1407 34.9473C59.9707 34.9473 58.9962 34.8434 58.2188 34.6251C57.4381 34.4127 56.8999 34.2292 56.599 34.0874L57.2262 30.8372C57.8595 31.1055 58.5179 31.313 59.1827 31.47C59.8564 31.6232 60.5121 31.7002 61.1691 31.7002C61.8535 31.7002 62.3379 31.6249 62.6251 31.4832C62.9108 31.3402 63.0491 31.0601 63.0491 30.6504C63.0491 30.3266 62.8688 30.045 62.4987 29.8055C62.1287 29.5616 61.5721 29.2905 60.8174 28.9816C60.2322 28.7481 59.7002 28.5074 59.2201 28.2588C58.7467 28.0059 58.3405 27.7106 58.0054 27.3596C57.6713 27.0101 57.4127 26.5914 57.2262 26.1036C57.0397 25.6243 56.951 25.0447 56.951 24.3609C56.951 23.0371 57.4127 21.9873 58.3314 21.2177Z" fill="#03435F"/>
</mask>
<g mask="url(#mask4_776_1659)">
<path fill-rule="evenodd" clip-rule="evenodd" d="M-180.092 74.2705L347.052 74.2705V-672.516H-180.092L-180.092 74.2705Z" fill="#231F20"/>
</g>
<mask id="mask5_776_1659" style="mask-type:alpha" maskUnits="userSpaceOnUse" x="56" y="20" width="11" height="15">
<path d="M58.3314 21.2177C59.2519 20.4509 60.5121 20.0594 62.1211 20.0594C62.926 20.0594 63.6959 20.1361 64.4328 20.2913C65.168 20.4419 65.7561 20.6135 66.1877 20.7868L65.5366 23.9043C65.1003 23.7432 64.6269 23.6017 64.1168 23.4783C63.6071 23.3517 63.0325 23.2857 62.398 23.2857C61.2263 23.2857 60.6399 23.6377 60.6399 24.3352C60.6399 24.4963 60.6654 24.6395 60.7164 24.7644C60.7678 24.891 60.8672 25.0115 61.0146 25.1274C61.1691 25.242 61.371 25.3713 61.6325 25.504C61.8926 25.6438 62.2233 25.7888 62.6251 25.9528C63.4417 26.2781 64.1199 26.5944 64.6552 26.9138C65.1922 27.233 65.6133 27.5688 65.9247 27.9423C66.2344 28.307 66.4539 28.7105 66.5773 29.1593C66.7007 29.6068 66.765 30.1232 66.765 30.7123C66.765 32.1084 66.2747 33.1643 65.299 33.878C64.3184 34.589 62.9318 34.9473 61.1407 34.9473C59.9707 34.9473 58.9962 34.8434 58.2188 34.6251C57.4381 34.4127 56.8999 34.2292 56.599 34.0874L57.2262 30.8372C57.8595 31.1055 58.5179 31.313 59.1827 31.47C59.8564 31.6232 60.5121 31.7002 61.1691 31.7002C61.8535 31.7002 62.3379 31.6249 62.6251 31.4832C62.9108 31.3402 63.0491 31.0601 63.0491 30.6504C63.0491 30.3266 62.8688 30.045 62.4987 29.8055C62.1287 29.5616 61.5721 29.2905 60.8174 28.9816C60.2322 28.7481 59.7002 28.5074 59.2201 28.2588C58.7467 28.0059 58.3405 27.7106 58.0054 27.3596C57.6713 27.0101 57.4127 26.5914 57.2262 26.1036C57.0397 25.6243 56.951 25.0447 56.951 24.3609C56.951 23.0371 57.4127 21.9873 58.3314 21.2177Z" fill="#03435F"/>
</mask>
<g mask="url(#mask5_776_1659)">
<path fill-rule="evenodd" clip-rule="evenodd" d="M50.3234 41.2227H73.0406V13.7835H50.3234V41.2227Z" fill="#231F20"/>
</g>
<path fill-rule="evenodd" clip-rule="evenodd" d="M78.2969 26.4567C77.9616 27.8183 77.6081 29.1738 77.2308 30.5142C76.8546 31.8592 76.4545 33.2118 76.0412 34.5732H73.1282C72.8259 33.8202 72.4967 32.9256 72.1447 31.8878C71.7896 30.8456 71.4273 29.7145 71.0468 28.4841C70.6706 27.2578 70.2859 25.9598 69.8917 24.5861C69.4962 23.2186 69.1127 21.836 68.7458 20.4367H72.689C72.8198 21.0798 72.9686 21.7864 73.1295 22.5467C73.2891 23.3088 73.4575 24.0936 73.6334 24.901C73.8094 25.7053 73.9974 26.5138 74.1897 27.3302C74.3838 28.1465 74.5825 28.9282 74.7837 29.68C75.0019 28.8923 75.2155 28.0879 75.4245 27.264C75.6306 26.4388 75.8337 25.6283 76.0275 24.8318C76.2186 24.0364 76.4066 23.2638 76.5779 22.5198C76.7524 21.7771 76.9074 21.0798 77.0443 20.4367H79.7526C79.891 21.0798 80.0367 21.7771 80.2065 22.5198C80.372 23.2638 80.5482 24.0364 80.7347 24.8318C80.9151 25.6283 81.1121 26.4388 81.3091 27.264C81.512 28.0879 81.7197 28.8923 81.9348 29.68C82.1377 28.9282 82.3393 28.1465 82.5422 27.3302C82.7453 26.5138 82.9362 25.7053 83.1107 24.901C83.2852 24.0936 83.4536 23.3088 83.6161 22.5467C83.777 21.7864 83.9229 21.0798 84.0566 20.4367H87.9487C87.5789 21.836 87.1983 23.2186 86.8028 24.5861C86.4042 25.9598 86.0236 27.2578 85.6433 28.4841C85.2686 29.7145 84.8988 30.8456 84.5393 31.8878C84.1771 32.9256 83.843 33.8202 83.5455 34.5732H80.6325C80.2112 33.2118 79.8023 31.8592 79.3992 30.5142C78.9976 29.1738 78.6337 27.8183 78.2969 26.4567Z" fill="#231F20"/>
<mask id="mask6_776_1659" style="mask-type:alpha" maskUnits="userSpaceOnUse" x="68" y="20" width="20" height="15">
<path d="M84.0566 20.4367H87.9487C87.5789 21.836 87.1983 23.2186 86.8026 24.5859C86.4042 25.9598 86.0236 27.2581 85.6431 28.4841C85.2686 29.7145 84.8988 30.8456 84.539 31.8878C84.1768 32.9256 83.843 33.8199 83.5452 34.5732H80.6323C80.2112 33.2118 79.8023 31.859 79.3992 30.514C78.9976 29.1738 78.6337 27.8183 78.2969 26.4567C77.9613 27.8183 77.6079 29.1738 77.2308 30.514C76.8546 31.859 76.4545 33.2118 76.0409 34.5732H73.128C72.8257 33.8199 72.4964 32.9256 72.1444 31.8878C71.7896 30.8456 71.4271 29.7145 71.0468 28.4841C70.6706 27.2581 70.2857 25.9598 69.8917 24.5859C69.4962 23.2186 69.1127 21.836 68.7458 20.4367H72.6888C72.8198 21.0798 72.9686 21.7861 73.1295 22.5467C73.2891 23.3088 73.4572 24.0936 73.6334 24.9007C73.8092 25.7051 73.9974 26.5138 74.1897 27.3302C74.3838 28.1465 74.5825 28.9282 74.7837 29.68C75.0017 28.8923 75.2153 28.0877 75.4243 27.264C75.6303 26.4388 75.8337 25.6283 76.0275 24.8318C76.2184 24.0362 76.4063 23.2636 76.5779 22.5198C76.7524 21.7771 76.9074 21.0798 77.044 20.4367H79.7526C79.8907 21.0798 80.0367 21.7771 80.2065 22.5198C80.372 23.2636 80.5482 24.0362 80.7344 24.8318C80.9151 25.6283 81.1118 26.4388 81.3091 27.264C81.512 28.0877 81.7197 28.8923 81.9346 29.68C82.1377 28.9282 82.3391 28.1465 82.5422 27.3302C82.7453 26.5138 82.9362 25.7051 83.1107 24.9007C83.2852 24.0936 83.4536 23.3088 83.6159 22.5467C83.777 21.7861 83.9229 21.0798 84.0566 20.4367Z" fill="#03435F"/>
</mask>
<g mask="url(#mask6_776_1659)">
<path fill-rule="evenodd" clip-rule="evenodd" d="M-180.092 74.2705L347.052 74.2705V-672.516H-180.092L-180.092 74.2705Z" fill="#231F20"/>
</g>
<mask id="mask7_776_1659" style="mask-type:alpha" maskUnits="userSpaceOnUse" x="68" y="20" width="20" height="15">
<path d="M84.0566 20.4367H87.9487C87.5789 21.836 87.1983 23.2186 86.8026 24.5859C86.4042 25.9598 86.0236 27.2581 85.6431 28.4841C85.2686 29.7145 84.8988 30.8456 84.539 31.8878C84.1768 32.9256 83.843 33.8199 83.5452 34.5732H80.6323C80.2112 33.2118 79.8023 31.859 79.3992 30.514C78.9976 29.1738 78.6337 27.8183 78.2969 26.4567C77.9613 27.8183 77.6079 29.1738 77.2308 30.514C76.8546 31.859 76.4545 33.2118 76.0409 34.5732H73.128C72.8257 33.8199 72.4964 32.9256 72.1444 31.8878C71.7896 30.8456 71.4271 29.7145 71.0468 28.4841C70.6706 27.2581 70.2857 25.9598 69.8917 24.5859C69.4962 23.2186 69.1127 21.836 68.7458 20.4367H72.6888C72.8198 21.0798 72.9686 21.7861 73.1295 22.5467C73.2891 23.3088 73.4572 24.0936 73.6334 24.9007C73.8092 25.7051 73.9974 26.5138 74.1897 27.3302C74.3838 28.1465 74.5825 28.9282 74.7837 29.68C75.0017 28.8923 75.2153 28.0877 75.4243 27.264C75.6303 26.4388 75.8337 25.6283 76.0275 24.8318C76.2184 24.0362 76.4063 23.2636 76.5779 22.5198C76.7524 21.7771 76.9074 21.0798 77.044 20.4367H79.7526C79.8907 21.0798 80.0367 21.7771 80.2065 22.5198C80.372 23.2636 80.5482 24.0362 80.7344 24.8318C80.9151 25.6283 81.1118 26.4388 81.3091 27.264C81.512 28.0877 81.7197 28.8923 81.9346 29.68C82.1377 28.9282 82.3391 28.1465 82.5422 27.3302C82.7453 26.5138 82.9362 25.7051 83.1107 24.9007C83.2852 24.0936 83.4536 23.3088 83.6159 22.5467C83.777 21.7861 83.9229 21.0798 84.0566 20.4367Z" fill="#03435F"/>
</mask>
<g mask="url(#mask7_776_1659)">
<path fill-rule="evenodd" clip-rule="evenodd" d="M62.4705 40.8486H94.2243V14.1609L62.4705 14.1609V40.8486Z" fill="#231F20"/>
</g>
<path fill-rule="evenodd" clip-rule="evenodd" d="M90.5934 34.5674H94.3291V20.4338H90.5934V34.5674Z" fill="#231F20"/>
<mask id="mask8_776_1659" style="mask-type:alpha" maskUnits="userSpaceOnUse" x="90" y="20" width="5" height="15">
<path d="M90.5934 34.5674V20.4338H94.3293V34.5674H90.5934Z" fill="#03435F"/>
</mask>
<g mask="url(#mask8_776_1659)">
<path fill-rule="evenodd" clip-rule="evenodd" d="M-180.092 74.2695L347.052 74.2695V-672.517H-180.092L-180.092 74.2695Z" fill="#231F20"/>
</g>
<mask id="mask9_776_1659" style="mask-type:alpha" maskUnits="userSpaceOnUse" x="90" y="20" width="5" height="15">
<path d="M90.5934 34.5674V20.4338H94.3293V34.5674H90.5934Z" fill="#03435F"/>
</mask>
<g mask="url(#mask9_776_1659)">
<path fill-rule="evenodd" clip-rule="evenodd" d="M84.3177 40.8428H100.604V14.158H84.3177V40.8428Z" fill="#231F20"/>
</g>
<path fill-rule="evenodd" clip-rule="evenodd" d="M97.3007 16.9094L101.039 16.2001V20.4412H104.739V23.7668H101.039V28.7401C101.039 29.5819 101.178 30.2599 101.453 30.7554C101.728 31.2569 102.286 31.5084 103.121 31.5084C103.525 31.5084 103.94 31.4722 104.364 31.3894C104.793 31.308 105.181 31.1921 105.534 31.0521L106.059 34.1698C105.606 34.3683 105.103 34.5372 104.554 34.6816C103.999 34.8232 103.327 34.8955 102.52 34.8955C101.498 34.8955 100.654 34.7481 99.9851 34.4497C99.3144 34.1591 98.7789 33.748 98.379 33.2147C97.9789 32.6906 97.6993 32.0444 97.5385 31.296C97.3759 30.5415 97.3007 29.7071 97.3007 28.7956V16.9094Z" fill="#231F20"/>
<mask id="mask10_776_1659" style="mask-type:alpha" maskUnits="userSpaceOnUse" x="97" y="16" width="10" height="19">
<path d="M97.301 16.9094L101.039 16.2001V20.4412H104.739V23.7668H101.039V28.7401C101.039 29.5819 101.178 30.2597 101.453 30.7554C101.728 31.2569 102.286 31.5082 103.121 31.5082C103.525 31.5082 103.941 31.4722 104.365 31.3894C104.793 31.3077 105.181 31.1921 105.534 31.0521L106.059 34.1696C105.607 34.3683 105.103 34.5372 104.554 34.6816C103.999 34.8232 103.327 34.8955 102.521 34.8955C101.498 34.8955 100.654 34.7481 99.9854 34.4497C99.3145 34.1588 98.7793 33.748 98.3794 33.2149C97.9793 32.6906 97.6997 32.0447 97.5386 31.296C97.3763 30.5415 97.301 29.7068 97.301 28.7959V16.9094Z" fill="#03435F"/>
</mask>
<g mask="url(#mask10_776_1659)">
<path fill-rule="evenodd" clip-rule="evenodd" d="M-180.092 74.2705L347.052 74.2705V-672.516H-180.092L-180.092 74.2705Z" fill="#231F20"/>
</g>
<mask id="mask11_776_1659" style="mask-type:alpha" maskUnits="userSpaceOnUse" x="97" y="16" width="10" height="19">
<path d="M97.301 16.9094L101.039 16.2001V20.4412H104.739V23.7668H101.039V28.7401C101.039 29.5819 101.178 30.2597 101.453 30.7554C101.728 31.2569 102.286 31.5082 103.121 31.5082C103.525 31.5082 103.941 31.4722 104.365 31.3894C104.793 31.3077 105.181 31.1921 105.534 31.0521L106.059 34.1696C105.607 34.3683 105.103 34.5372 104.554 34.6816C103.999 34.8232 103.327 34.8955 102.521 34.8955C101.498 34.8955 100.654 34.7481 99.9854 34.4497C99.3145 34.1588 98.7793 33.748 98.3794 33.2149C97.9793 32.6906 97.6997 32.0447 97.5386 31.296C97.3763 30.5415 97.301 29.7068 97.301 28.7959V16.9094Z" fill="#03435F"/>
</mask>
<g mask="url(#mask11_776_1659)">
<path fill-rule="evenodd" clip-rule="evenodd" d="M91.025 41.1709H112.335V9.92418H91.025V41.1709Z" fill="#231F20"/>
</g>
<path fill-rule="evenodd" clip-rule="evenodd" d="M107.381 27.5085C107.381 26.4856 107.536 25.5218 107.846 24.6182C108.155 23.7115 108.602 22.9254 109.187 22.252C109.774 21.5789 110.483 21.0485 111.322 20.6526C112.157 20.2625 113.111 20.0606 114.181 20.0606C114.884 20.0606 115.529 20.1315 116.115 20.264C116.702 20.4011 117.273 20.5925 117.822 20.8408L117.046 24.0385C116.693 23.8967 116.309 23.7733 115.888 23.6619C115.47 23.5563 114.999 23.5008 114.482 23.5008C113.378 23.5008 112.553 23.8696 112.013 24.6046C111.464 25.3412 111.196 26.3067 111.196 27.5085C111.196 28.778 111.45 29.7644 111.965 30.4635C112.47 31.1608 113.363 31.5118 114.634 31.5118C115.087 31.5118 115.569 31.4648 116.091 31.3761C116.609 31.2857 117.085 31.1442 117.525 30.9454L118.048 34.2258C117.612 34.423 117.07 34.5887 116.418 34.7346C115.762 34.8766 115.044 34.9502 114.26 34.9502C113.055 34.9502 112.014 34.7544 111.146 34.3702C110.278 33.9862 109.56 33.462 109 32.7993C108.437 32.1353 108.031 31.3522 107.771 30.4483C107.51 29.5432 107.381 28.5614 107.381 27.5085Z" fill="#231F20"/>
<mask id="mask12_776_1659" style="mask-type:alpha" maskUnits="userSpaceOnUse" x="107" y="20" width="12" height="15">
<path d="M111.322 20.6526C112.157 20.2625 113.111 20.0606 114.181 20.0606C114.884 20.0606 115.529 20.1313 116.115 20.2637C116.702 20.4011 117.273 20.5922 117.822 20.8408L117.046 24.0382C116.693 23.8967 116.309 23.7733 115.888 23.6619C115.47 23.556 114.999 23.5005 114.482 23.5005C113.378 23.5005 112.553 23.8696 112.013 24.6046C111.464 25.341 111.196 26.3064 111.196 27.5085C111.196 28.778 111.451 29.7644 111.965 30.4635C112.47 31.1608 113.363 31.5118 114.634 31.5118C115.087 31.5118 115.569 31.4648 116.091 31.3761C116.609 31.2857 117.085 31.1442 117.524 30.9452L118.048 34.2258C117.612 34.423 117.07 34.5885 116.418 34.7346C115.762 34.8764 115.045 34.9502 114.26 34.9502C113.055 34.9502 112.014 34.7542 111.146 34.37C110.278 33.986 109.56 33.462 109 32.7996C108.437 32.1353 108.031 31.3522 107.771 30.4483C107.51 29.5432 107.381 28.5612 107.381 27.5085C107.381 26.4856 107.536 25.5218 107.846 24.6182C108.155 23.7115 108.602 22.9252 109.187 22.2518C109.774 21.5787 110.483 21.0485 111.322 20.6526Z" fill="#03435F"/>
</mask>
<g mask="url(#mask12_776_1659)">
<path fill-rule="evenodd" clip-rule="evenodd" d="M-180.092 74.2705L347.052 74.2705V-672.516H-180.092L-180.092 74.2705Z" fill="#231F20"/>
</g>
<mask id="mask13_776_1659" style="mask-type:alpha" maskUnits="userSpaceOnUse" x="107" y="20" width="12" height="15">
<path d="M111.322 20.6526C112.157 20.2625 113.111 20.0606 114.181 20.0606C114.884 20.0606 115.529 20.1313 116.115 20.2637C116.702 20.4011 117.273 20.5922 117.822 20.8408L117.046 24.0382C116.693 23.8967 116.309 23.7733 115.888 23.6619C115.47 23.556 114.999 23.5005 114.482 23.5005C113.378 23.5005 112.553 23.8696 112.013 24.6046C111.464 25.341 111.196 26.3064 111.196 27.5085C111.196 28.778 111.451 29.7644 111.965 30.4635C112.47 31.1608 113.363 31.5118 114.634 31.5118C115.087 31.5118 115.569 31.4648 116.091 31.3761C116.609 31.2857 117.085 31.1442 117.524 30.9452L118.048 34.2258C117.612 34.423 117.07 34.5885 116.418 34.7346C115.762 34.8764 115.045 34.9502 114.26 34.9502C113.055 34.9502 112.014 34.7542 111.146 34.37C110.278 33.986 109.56 33.462 109 32.7996C108.437 32.1353 108.031 31.3522 107.771 30.4483C107.51 29.5432 107.381 28.5612 107.381 27.5085C107.381 26.4856 107.536 25.5218 107.846 24.6182C108.155 23.7115 108.602 22.9252 109.187 22.2518C109.774 21.5787 110.483 21.0485 111.322 20.6526Z" fill="#03435F"/>
</mask>
<g mask="url(#mask13_776_1659)">
<path fill-rule="evenodd" clip-rule="evenodd" d="M101.105 41.2256H124.323V13.7847H101.105V41.2256Z" fill="#231F20"/>
</g>
<path fill-rule="evenodd" clip-rule="evenodd" d="M120.465 34.5684V16.9044L124.205 16.2012V20.4937C124.454 20.4047 124.775 20.3189 125.172 20.2377C125.563 20.1578 125.946 20.1155 126.313 20.1155C127.382 20.1155 128.271 20.2737 128.984 20.5855C129.694 20.8989 130.267 21.3432 130.691 21.9169C131.121 22.4878 131.419 23.1715 131.598 23.9563C131.771 24.7467 131.858 25.6266 131.858 26.5935V34.5684H128.119V27.0738C128.119 25.7845 127.964 24.8719 127.656 24.3312C127.346 23.7994 126.772 23.53 125.937 23.53C125.597 23.53 125.287 23.5618 124.993 23.6219C124.701 23.6852 124.438 23.7544 124.205 23.8253V34.5684H120.465Z" fill="#231F20"/>
<mask id="mask14_776_1659" style="mask-type:alpha" maskUnits="userSpaceOnUse" x="120" y="16" width="12" height="19">
<path d="M120.465 16.9034L124.205 16.2002V20.4929C124.454 20.4037 124.775 20.3179 125.172 20.2368C125.563 20.1568 125.946 20.1148 126.313 20.1148C127.382 20.1148 128.271 20.2729 128.984 20.5846C129.694 20.8982 130.267 21.3423 130.691 21.9162C131.121 22.4869 131.419 23.1705 131.598 23.9556C131.771 24.746 131.858 25.6256 131.858 26.5928V34.5674H128.119V27.0728C128.119 25.7838 127.964 24.8709 127.656 24.3303C127.346 23.7986 126.772 23.529 125.937 23.529C125.597 23.529 125.287 23.5608 124.993 23.6212C124.701 23.6843 124.438 23.7534 124.205 23.8243V34.5674H120.465V16.9034Z" fill="#03435F"/>
</mask>
<g mask="url(#mask14_776_1659)">
<path fill-rule="evenodd" clip-rule="evenodd" d="M-180.092 74.2695L347.052 74.2695V-672.517H-180.092L-180.092 74.2695Z" fill="#231F20"/>
</g>
<mask id="mask15_776_1659" style="mask-type:alpha" maskUnits="userSpaceOnUse" x="120" y="16" width="12" height="19">
<path d="M120.465 16.9034L124.205 16.2002V20.4929C124.454 20.4037 124.775 20.3179 125.172 20.2368C125.563 20.1568 125.946 20.1148 126.313 20.1148C127.382 20.1148 128.271 20.2729 128.984 20.5846C129.694 20.8982 130.267 21.3423 130.691 21.9162C131.121 22.4869 131.419 23.1705 131.598 23.9556C131.771 24.746 131.858 25.6256 131.858 26.5928V34.5674H128.119V27.0728C128.119 25.7838 127.964 24.8709 127.656 24.3303C127.346 23.7986 126.772 23.529 125.937 23.529C125.597 23.529 125.287 23.5608 124.993 23.6212C124.701 23.6843 124.438 23.7534 124.205 23.8243V34.5674H120.465V16.9034Z" fill="#03435F"/>
</mask>
<g mask="url(#mask15_776_1659)">
<path fill-rule="evenodd" clip-rule="evenodd" d="M114.189 40.8428H138.133V9.92422H114.189V40.8428Z" fill="#231F20"/>
</g>
<path fill-rule="evenodd" clip-rule="evenodd" d="M7.70557 34.5723L7.70557 21.7641C7.70557 21.7641 9.58536 20.1571 13.6969 20.1571C17.4385 20.1571 19.493 22.1588 19.493 26.5642V34.5723H15.7559V26.5642C15.7559 23.7583 14.4444 23.564 13.324 23.564C12.2036 23.564 11.4532 24.1604 11.4532 24.1604V34.5723H7.70557Z" fill="#231F20"/>
<mask id="mask16_776_1659" style="mask-type:alpha" maskUnits="userSpaceOnUse" x="7" y="20" width="13" height="15">
<path d="M7.70593 21.7641C7.70593 21.7641 9.58573 20.1571 13.6973 20.1571C17.4388 20.1571 19.4931 22.1586 19.4931 26.5644V34.5723H15.7563V26.5644C15.7563 23.7581 14.4447 23.564 13.3243 23.564C12.2039 23.564 11.4536 24.1606 11.4536 24.1606V34.5723H7.70593L7.70593 21.7641Z" fill="#03435F"/>
</mask>
<g mask="url(#mask16_776_1659)">
<path fill-rule="evenodd" clip-rule="evenodd" d="M-180.092 74.2695L347.052 74.2695V-672.517H-180.092L-180.092 74.2695Z" fill="#231F20"/>
</g>
<mask id="mask17_776_1659" style="mask-type:alpha" maskUnits="userSpaceOnUse" x="7" y="20" width="13" height="15">
<path d="M7.70593 21.7641C7.70593 21.7641 9.58573 20.1571 13.6973 20.1571C17.4388 20.1571 19.4931 22.1586 19.4931 26.5644V34.5723H15.7563V26.5644C15.7563 23.7581 14.4447 23.564 13.3243 23.564C12.2039 23.564 11.4536 24.1606 11.4536 24.1606V34.5723H7.70593L7.70593 21.7641Z" fill="#03435F"/>
</mask>
<g mask="url(#mask17_776_1659)">
<path fill-rule="evenodd" clip-rule="evenodd" d="M1.43042 40.8477H25.7684V13.8814H1.43042L1.43042 40.8477Z" fill="#231F20"/>
</g>
<path fill-rule="evenodd" clip-rule="evenodd" d="M0.664551 34.5723L0.664551 16.9053L4.4061 16.2003L4.4061 34.5723H0.664551Z" fill="#231F20"/>
<mask id="mask18_776_1659" style="mask-type:alpha" maskUnits="userSpaceOnUse" x="0" y="16" width="5" height="19">
<path d="M0.664551 16.9055L4.4061 16.2003L4.4061 34.5723H0.664551L0.664551 16.9055Z" fill="#03435F"/>
</mask>
<g mask="url(#mask18_776_1659)">
<path fill-rule="evenodd" clip-rule="evenodd" d="M-180.092 74.2695L347.052 74.2695V-672.517H-180.092L-180.092 74.2695Z" fill="#231F20"/>
</g>
<mask id="mask19_776_1659" style="mask-type:alpha" maskUnits="userSpaceOnUse" x="0" y="16" width="5" height="19">
<path d="M0.664551 16.9055L4.4061 16.2003L4.4061 34.5723H0.664551L0.664551 16.9055Z" fill="#03435F"/>
</mask>
<g mask="url(#mask19_776_1659)">
<path fill-rule="evenodd" clip-rule="evenodd" d="M-5.61108 40.8477H10.6817L10.6817 9.92469H-5.61108L-5.61108 40.8477Z" fill="#231F20"/>
</g>
<path fill-rule="evenodd" clip-rule="evenodd" d="M44.8458 28.5199H36.43C36.43 28.5199 36.618 31.5215 40.3551 31.5215C42.2261 31.5215 44.0969 30.9235 44.0969 30.9235L44.4713 34.13C44.4713 34.13 42.602 34.9238 39.9853 34.9238C36.2421 34.9238 32.8765 32.925 32.8765 27.321C32.8765 22.914 35.4932 20.1156 39.2335 20.1156C44.8458 20.1156 45.2217 26.1129 44.8458 28.5199ZM39.0499 22.914C36.618 22.914 36.43 25.7152 36.43 25.7152H41.6635C41.6635 25.7152 41.4802 22.914 39.0499 22.914Z" fill="#231F20"/>
<mask id="mask20_776_1659" style="mask-type:alpha" maskUnits="userSpaceOnUse" x="32" y="20" width="13" height="15">
<path d="M32.8765 27.3217C32.8765 22.9147 35.4932 20.1164 39.2333 20.1164C44.8455 20.1164 45.2214 26.1138 44.8455 28.5206H36.43C36.43 28.5206 36.618 31.5223 40.3549 31.5223C42.2259 31.5223 44.0967 30.9242 44.0967 30.9242L44.4711 34.1307C44.4711 34.1307 42.6018 34.9248 39.9851 34.9248C36.2421 34.9248 32.8765 32.926 32.8765 27.3217ZM39.0497 22.9147C36.618 22.9147 36.43 25.7162 36.43 25.7162H41.6635C41.6635 25.7162 41.4799 22.9147 39.0497 22.9147Z" fill="#03435F"/>
</mask>
<g mask="url(#mask20_776_1659)">
<path fill-rule="evenodd" clip-rule="evenodd" d="M-180.092 74.2705L347.052 74.2705V-672.516H-180.092L-180.092 74.2705Z" fill="#231F20"/>
</g>
<mask id="mask21_776_1659" style="mask-type:alpha" maskUnits="userSpaceOnUse" x="32" y="20" width="13" height="15">
<path d="M32.8765 27.3217C32.8765 22.9147 35.4932 20.1164 39.2333 20.1164C44.8455 20.1164 45.2214 26.1138 44.8455 28.5206H36.43C36.43 28.5206 36.618 31.5223 40.3549 31.5223C42.2259 31.5223 44.0967 30.9242 44.0967 30.9242L44.4711 34.1307C44.4711 34.1307 42.6018 34.9248 39.9851 34.9248C36.2421 34.9248 32.8765 32.926 32.8765 27.3217ZM39.0497 22.9147C36.618 22.9147 36.43 25.7162 36.43 25.7162H41.6635C41.6635 25.7162 41.4799 22.9147 39.0497 22.9147Z" fill="#03435F"/>
</mask>
<g mask="url(#mask21_776_1659)">
<path fill-rule="evenodd" clip-rule="evenodd" d="M26.601 41.2002H51.2258V13.8408H26.601V41.2002Z" fill="#231F20"/>
</g>
<mask id="mask22_776_1659" style="mask-type:alpha" maskUnits="userSpaceOnUse" x="136" y="13" width="26" height="33">
<path d="M136.814 16.2043C136.814 15.3503 147.57 13.5074 154.785 13.5074C157.913 13.5074 160.375 13.854 161.005 14.7779C164.253 19.0674 141.386 45.9788 139.48 45.1625C137.952 44.7543 151.672 27.6251 149.385 20.6896C148.243 17.0221 136.814 17.43 136.814 16.2043Z" fill="#ED342B"/>
</mask>
<g mask="url(#mask22_776_1659)">
<path fill-rule="evenodd" clip-rule="evenodd" d="M130.538 51.4561H167.596V7.23166H130.538V51.4561Z" fill="#231F20"/>
</g>
<mask id="mask23_776_1659" style="mask-type:alpha" maskUnits="userSpaceOnUse" x="156" y="0" width="11" height="11">
<path d="M156.243 5.60192C156.243 2.6726 158.461 0.302011 161.195 0.302011C163.932 0.302011 166.147 2.6726 166.147 5.60192C166.147 8.53273 163.932 10.9033 161.195 10.9033C158.461 10.9033 156.243 8.53273 156.243 5.60192Z" fill="#ED342B"/>
</mask>
<g mask="url(#mask23_776_1659)">
<path fill-rule="evenodd" clip-rule="evenodd" d="M149.968 17.1787H172.423V-5.97408H149.968V17.1787Z" fill="#231F20"/>
</g>
</g>
<defs>
<clipPath id="clip0_776_1659">
<rect width="166.036" height="45.4825" fill="white" transform="translate(0.356445)"/>
</clipPath>
</defs>
</svg>
