<svg width="168" height="51" viewBox="0 0 168 51" fill="none" xmlns="http://www.w3.org/2000/svg">
<path d="M57.4626 31.0318C57.4626 32.2064 57.2452 33.33 56.8472 34.3658C55.4852 37.9038 52.025 40.417 47.9699 40.417C43.8197 40.417 40.2932 37.7843 39.0021 34.1155C31.3354 34.6604 26.9515 31.2723 25.1286 24.8146C20.524 23.5764 17.1394 19.4138 17.1394 14.4683C17.1394 11.2699 18.5559 8.39787 20.8026 6.43463C22.7143 4.76124 25.2286 3.74609 27.9829 3.74609C31.1384 3.74609 33.9799 5.07823 35.9591 7.20761C37.2903 6.34689 38.8811 5.84799 40.5898 5.84799C41.7822 5.84799 42.9187 6.09194 43.9485 6.5318C46.9286 7.80358 49.0239 10.7167 49.0705 14.1194C49.0721 14.1592 49.0721 14.1975 49.0721 14.2374L49.0705 14.3793V14.3808C49.5039 14.2868 49.9536 14.2374 50.4163 14.2374C52.4825 14.2374 54.3182 15.216 55.4753 16.7299H55.4771C56.2796 17.7802 56.7551 19.0885 56.7551 20.5069C56.758 21.978 56.2339 23.4025 55.2756 24.5278C55.2036 24.6146 55.1288 24.6991 55.0514 24.7812C56.5521 26.4402 57.4626 28.6315 57.4626 31.0318" fill="#231F20"/>
<path d="M40.4847 13.7108C38.7673 15.5564 37.7184 18.02 37.7184 20.726C37.7184 26.4489 42.4104 31.0885 48.1982 31.0885C48.9449 31.0888 49.6895 31.0107 50.4195 30.8552M27.5249 10.3658C27.7871 14.1084 30.9406 17.0641 34.7921 17.0641M46.3773 15.6743C47.1562 15.0343 48.0802 14.5903 49.0705 14.3804M35.959 7.20703C34.7391 7.99256 33.7364 9.0812 33.0613 10.3658" stroke="white" stroke-width="1.28941" stroke-miterlimit="10" stroke-linecap="round" stroke-linejoin="round"/>
<path d="M57.4626 31.0307C57.4626 36.2149 53.2126 40.4161 47.9699 40.4161C43.8197 40.4161 40.2932 37.7833 39.0021 34.1146C31.3354 34.6595 26.9515 31.2713 25.1286 24.8137C20.524 23.5754 17.1394 19.4128 17.1394 14.4673C17.1394 8.54534 21.9937 3.74512 27.9829 3.74512C31.1384 3.74512 33.9799 5.07725 35.9591 7.20664C37.2903 6.34592 38.8811 5.84701 40.5898 5.84701C45.2749 5.84701 49.0721 9.60353 49.0721 14.2364L49.0705 14.3783V14.3799C49.5039 14.2858 49.9536 14.2364 50.4163 14.2364C53.9168 14.2364 56.7551 17.0428 56.7551 20.506C56.7551 22.1587 56.1088 23.6599 55.0514 24.7802C56.5521 26.4392 57.4626 28.6305 57.4626 31.0308L57.4626 31.0307Z" stroke="white" stroke-width="1.12816" stroke-miterlimit="10" stroke-linejoin="round"/>
<path d="M55.0523 24.7793C55.0523 24.7793 54.3163 24.0242 53.3098 23.2383M26.7457 41.8001C26.3303 40.9419 26.0645 40.0204 25.9595 39.0747" stroke="white" stroke-width="1.28941" stroke-miterlimit="10" stroke-linecap="round" stroke-linejoin="round"/>
<path d="M45.3581 35.2727C45.6936 36.1933 45.8648 37.1645 45.864 38.1431C45.864 43.176 41.3964 47.2541 35.8843 47.2541C31.7971 47.2541 28.285 45.0117 26.7442 41.8006C25.4744 42.6531 23.9511 43.1504 22.3152 43.1504C18.6472 43.1504 15.5526 40.6546 14.5824 37.241C13.8898 37.4117 13.1785 37.4979 12.4646 37.4976C7.67299 37.4976 3.78711 33.6566 3.78711 28.9169C3.78711 25.277 6.08055 22.1662 9.31683 20.9214C9.18952 20.4003 9.12188 19.8601 9.12188 19.3055C9.12188 15.0073 13.1609 11.5234 18.1442 11.5234C21.0051 11.5234 23.5578 12.6738 25.2098 14.4653C26.5347 13.7624 28.0627 13.3593 29.6905 13.3593C34.74 13.3593 38.8336 17.2305 38.8336 22.0052C38.8341 22.1177 38.8314 22.2304 38.8254 22.3428C42.9919 23.0982 46.1588 26.8818 46.1588 31.4366C46.1588 32.8056 45.8736 34.1044 45.358 35.2726" fill="#231F20"/>
<path d="M42.1206 31.0319C43.608 32.1187 44.746 33.5883 45.3585 35.2743M14.5829 37.2424C14.3765 36.5189 14.2669 35.7555 14.2669 34.9651C14.2669 31.7393 16.1027 28.9489 18.7685 27.6149M11.5772 20.3843C10.7874 20.464 10.0299 20.6474 9.31738 20.923M25.2122 14.4684L25.2104 14.4668M25.2104 14.4668C24.0775 15.0725 23.0944 15.8981 22.3257 16.8831" stroke="white" stroke-width="1.28941" stroke-miterlimit="10" stroke-linecap="round" stroke-linejoin="round"/>
<path d="M45.3615 35.2727C45.6971 36.1933 45.8682 37.1645 45.8674 38.1431C45.8674 43.176 41.3998 47.2541 35.8877 47.2541C31.8005 47.2541 28.2884 45.0117 26.7477 41.8006C25.4778 42.6531 23.9545 43.1504 22.3186 43.1504C18.6506 43.1504 15.556 40.6546 14.5858 37.241C13.8932 37.4117 13.1819 37.4979 12.4681 37.4976C7.67641 37.4976 3.79053 33.6566 3.79053 28.9169C3.79053 25.277 6.08395 22.1662 9.32024 20.9214C9.19293 20.4003 9.12529 19.8601 9.12529 19.3055C9.12529 15.0073 13.1643 11.5234 18.1477 11.5234C21.0085 11.5234 23.5612 12.6738 25.2132 14.4653C26.5381 13.7624 28.0661 13.3593 29.6939 13.3593C34.7435 13.3593 38.837 17.2305 38.837 22.0052C38.8375 22.1177 38.8348 22.2304 38.8288 22.3428C42.9953 23.0982 46.1622 26.8818 46.1622 31.4366C46.1622 32.8056 45.877 34.1044 45.3614 35.2726L45.3615 35.2727Z" stroke="white" stroke-width="1.12816" stroke-miterlimit="10" stroke-linejoin="round"/>
<path d="M31.0255 24.9125C32.6307 23.2423 34.8468 22.208 37.2933 22.208C37.8155 22.208 38.3265 22.2543 38.8244 22.3448M38.2503 33.2008C36.9856 34.7646 35.0398 35.7664 32.8574 35.7664C29.0458 35.7664 25.9561 32.7108 25.9561 28.9421C25.9536 27.3685 26.5036 25.8427 27.512 24.6253" stroke="white" stroke-width="1.28941" stroke-miterlimit="10" stroke-linecap="round" stroke-linejoin="round"/>
<path d="M35.911 39.144C35.911 37.8038 35.5692 36.5434 34.9664 35.442M21.4877 34.7855C22.6256 33.1185 24.397 31.912 26.4616 31.5025M9.18408 28.9236C10.0583 28.5811 10.9902 28.4054 11.9304 28.4057C13.4382 28.4037 14.9106 28.8563 16.1514 29.7032M23.3728 22.6429C22.9032 22.7797 22.4061 22.853 21.8917 22.853C20.5263 22.8547 19.2145 22.3277 18.2372 21.3848M46.0229 22.3102C46.7453 21.7772 47.6228 21.4898 48.5241 21.4913C48.7746 21.4912 49.0246 21.5131 49.2712 21.5569" stroke="white" stroke-width="1.28941" stroke-miterlimit="10" stroke-linecap="round" stroke-linejoin="round"/>
<path d="M55.7959 24.7839C56.7822 23.5736 57.3203 22.073 57.3203 20.5062C57.3203 16.7415 54.2235 13.6786 50.4173 13.6786C50.1512 13.6786 49.8858 13.6939 49.6225 13.7241C49.3532 9.02805 45.405 5.28951 40.5905 5.28951C38.9852 5.28951 37.4258 5.70511 36.0521 6.49542C33.9114 4.38021 31.0099 3.19064 27.9837 3.1875C22.9115 3.1875 18.6039 6.47869 17.1251 11.0141C12.3175 11.4588 8.55947 15.0075 8.55947 19.3061C8.55947 19.7339 8.5973 20.1624 8.67188 20.5851C5.34699 22.0586 3.22485 25.2796 3.22485 28.9177C3.22485 33.9565 7.37062 38.0559 12.4664 38.0559C13.0483 38.056 13.6289 38.0023 14.2007 37.8955C15.4102 41.3436 18.6756 43.7088 22.3171 43.7088C23.7947 43.7098 25.2464 43.3256 26.526 42.5951C28.3276 45.7841 31.9314 47.8125 35.886 47.8125C40.7008 47.8125 44.7694 44.8364 46.0264 40.7858C46.6587 40.9089 47.3091 40.9738 47.9706 40.9738C53.516 40.9738 58.0277 36.5132 58.0277 31.0309C58.0277 28.7469 57.2386 26.5473 55.7959 24.7837V24.7839Z" stroke="white" stroke-width="2.25644" stroke-miterlimit="10" stroke-linejoin="round"/>
<path d="M27.9823 0C25.0028 0 22.1367 0.877332 19.6942 2.53697C17.5851 3.96999 15.9132 5.90286 14.8089 8.17246C9.4332 9.46059 5.58991 13.7382 5.34694 18.7963C2.01976 21.0806 0 24.8523 0 28.9176C0 35.6427 5.47556 41.1272 12.2495 41.2414C14.3884 44.7165 18.2014 46.8962 22.3157 46.8962C23.3668 46.8962 24.3997 46.7585 25.4015 46.4854C27.9945 49.3368 31.8042 50.9999 35.8846 50.9999C38.6488 50.9999 41.3262 50.2249 43.6276 48.7591C45.4977 47.5681 47.0045 45.9961 48.0473 44.161C55.3347 44.1197 61.2497 38.2453 61.2497 31.0309C61.2497 28.8018 60.6859 26.639 59.6087 24.7051C60.2242 23.389 60.5428 21.9561 60.5424 20.506C60.5424 17.8796 59.5186 15.3961 57.6597 13.5132C56.1936 12.0282 54.338 11.0472 52.3186 10.6676C51.636 8.47653 50.3289 6.50242 48.5428 4.99781C46.3233 3.12962 43.504 2.10308 40.5893 2.10177C39.2308 2.10177 37.8673 2.32972 36.5825 2.76647C34.0869 0.974751 31.0791 0 27.9823 0ZM27.9823 2.07177C31.0033 2.07177 33.9659 3.18111 36.2351 5.13968C37.5964 4.5033 39.0834 4.17341 40.5891 4.17378C45.6042 4.17378 49.8152 7.78016 50.6242 12.5657C54.9563 12.6755 58.4469 16.1954 58.4469 20.5061C58.4454 22.0166 58.0097 23.4954 57.1904 24.7703C58.4621 26.6025 59.1544 28.7947 59.1544 31.031C59.1544 37.1288 54.1365 42.0897 47.9691 42.0897C47.5702 42.0897 47.1698 42.0682 46.7714 42.0257C45.0501 46.1341 40.7125 48.9283 35.8844 48.9283C31.9028 48.9283 28.2542 47.0816 26.1134 44.0459C24.9145 44.5589 23.6221 44.8239 22.3157 44.8245C18.5095 44.8245 15.0669 42.5679 13.4817 39.1227C13.144 39.1553 12.8041 39.1715 12.465 39.1715C6.7472 39.1715 2.09531 34.5718 2.09531 28.9176C2.09531 25.1639 4.17297 21.7249 7.45398 19.9391C7.43806 19.7285 7.43008 19.5173 7.43005 19.306C7.43005 14.6686 11.1918 10.7723 16.2936 9.99204C18.1574 5.22563 22.7665 2.07177 27.9825 2.07177" fill="white"/>
<path d="M70 34.7542V16.2943H74.2513V34.7542H70ZM87.5075 35.0707C86.0727 35.0707 84.7343 34.8333 83.4922 34.3586C82.2675 33.884 81.2003 33.2159 80.2905 32.3544C79.3983 31.493 78.6985 30.4821 78.1911 29.3217C77.7012 28.1614 77.4563 26.8956 77.4563 25.5243C77.4563 24.153 77.7012 22.8871 78.1911 21.7268C78.6985 20.5665 79.407 19.5556 80.3168 18.6941C81.2265 17.8326 82.2937 17.1646 83.5184 16.6899C84.7431 16.2152 86.0727 15.9778 87.5075 15.9778C88.9596 15.9778 90.2893 16.2152 91.4964 16.6899C92.7211 17.1646 93.7796 17.8326 94.6718 18.6941C95.5816 19.538 96.2901 20.5401 96.7975 21.7004C97.3049 22.8608 97.5585 24.1354 97.5585 25.5243C97.5585 26.8956 97.3049 28.1702 96.7975 29.3481C96.2901 30.5084 95.5816 31.5193 94.6718 32.3808C93.7796 33.2247 92.7211 33.884 91.4964 34.3586C90.2893 34.8333 88.9596 35.0707 87.5075 35.0707ZM93.5171 39C92.7998 39 92.1175 38.9209 91.4702 38.7627C90.8404 38.6044 90.2105 38.3495 89.5807 37.9979C88.9684 37.6463 88.321 37.1716 87.6387 36.5738C86.9737 35.9761 86.2477 35.2377 85.4604 34.3586L89.9219 33.2247C90.3942 33.8752 90.8316 34.3938 91.234 34.7806C91.6364 35.1674 92.0213 35.4399 92.3887 35.5981C92.7736 35.7563 93.176 35.8354 93.5959 35.8354C94.7156 35.8354 95.7128 35.3783 96.5876 34.4641L98.477 36.7321C97.2349 38.244 95.5816 39 93.5171 39ZM87.5075 31.4314C88.3298 31.4314 89.0821 31.2908 89.7644 31.0095C90.4642 30.7282 91.0765 30.3238 91.6014 29.7964C92.1263 29.269 92.5287 28.6449 92.8086 27.924C93.106 27.1857 93.2547 26.3857 93.2547 25.5243C93.2547 24.6452 93.106 23.8453 92.8086 23.1245C92.5287 22.4037 92.1263 21.7795 91.6014 21.2521C91.0765 20.7247 90.4642 20.3203 89.7644 20.039C89.0821 19.7577 88.3298 19.6171 87.5075 19.6171C86.6851 19.6171 85.924 19.7577 85.2242 20.039C84.5244 20.3203 83.9121 20.7247 83.3872 21.2521C82.8798 21.7795 82.4775 22.4037 82.18 23.1245C81.9001 23.8453 81.7601 24.6452 81.7601 25.5243C81.7601 26.3857 81.9001 27.1857 82.18 27.924C82.4775 28.6449 82.8798 29.269 83.3872 29.7964C83.9121 30.3238 84.5244 30.7282 85.2242 31.0095C85.924 31.2908 86.6851 31.4314 87.5075 31.4314ZM101.5 34.9652C100.8 34.9652 100.197 34.7278 99.6895 34.2532C99.1996 33.7609 98.9547 33.1368 98.9547 32.3808C98.9547 31.6248 99.1996 31.0183 99.6895 30.5612C100.197 30.0865 100.8 29.8492 101.5 29.8492C102.218 29.8492 102.821 30.0865 103.311 30.5612C103.801 31.0183 104.046 31.6248 104.046 32.3808C104.046 33.1368 103.801 33.7609 103.311 34.2532C102.821 34.7278 102.218 34.9652 101.5 34.9652ZM110.518 34.7542L104.509 16.2943H108.917L114.14 32.6445H111.935L117.394 16.2943H121.33L126.579 32.6445H124.453L129.807 16.2943H133.874L127.865 34.7542H123.298L118.653 20.4082H119.861L115.084 34.7542H110.518ZM136.19 34.7542V20.5665H140.284V34.7542H136.19ZM138.237 18.5886C137.484 18.5886 136.872 18.3688 136.4 17.9293C135.927 17.4898 135.691 16.9448 135.691 16.2943C135.691 15.6438 135.927 15.0988 136.4 14.6593C136.872 14.2198 137.484 14 138.237 14C138.989 14 139.601 14.211 140.074 14.6329C140.546 15.0373 140.782 15.5647 140.782 16.2152C140.782 16.9008 140.546 17.4722 140.074 17.9293C139.619 18.3688 139.007 18.5886 138.237 18.5886ZM147.469 31.8534L147.574 26.8428L154.161 20.5665H159.042L152.718 27.0274L150.592 28.7679L147.469 31.8534ZM144.084 34.7542V15.1867H148.178V34.7542H144.084ZM154.607 34.7542L149.831 28.7943L152.403 25.6034L159.567 34.7542H154.607ZM161.407 34.7542V20.5665H165.501V34.7542H161.407ZM163.454 18.5886C162.702 18.5886 162.09 18.3688 161.617 17.9293C161.145 17.4898 160.909 16.9448 160.909 16.2943C160.909 15.6438 161.145 15.0988 161.617 14.6593C162.09 14.2198 162.702 14 163.454 14C164.207 14 164.819 14.211 165.291 14.6329C165.764 15.0373 166 15.5647 166 16.2152C166 16.9008 165.764 17.4722 165.291 17.9293C164.837 18.3688 164.224 18.5886 163.454 18.5886Z" fill="#1A202C"/>
</svg>
