<svg width="156" height="43" viewBox="0 0 156 43" fill="none" xmlns="http://www.w3.org/2000/svg">
<path d="M92.9495 12.9784V31.5318H87.569V28.8222C87.0197 29.7636 86.2224 30.5361 85.264 31.0553C84.2723 31.5771 83.1654 31.8415 82.0449 31.8242C79.7271 31.8242 77.9949 31.1774 76.8482 29.8836C75.7016 28.5898 75.1295 26.638 75.132 24.0284V12.9784H80.6505V24.1387C80.6505 26.383 81.6138 27.5051 83.5404 27.5051C84.6858 27.5051 85.6129 27.1151 86.3218 26.3351C87.0306 25.5552 87.3844 24.5306 87.3832 23.2613V12.9784H92.9495ZM114.049 4.5166V31.5318H108.596V28.7872C108.032 29.741 107.207 30.5148 106.22 31.0185C105.144 31.5677 103.951 31.8444 102.743 31.8242C101.236 31.8491 99.7558 31.4217 98.4939 30.5973C97.2208 29.7463 96.213 28.5542 95.5856 27.1574C94.8902 25.6858 94.5426 23.9965 94.5426 22.0895C94.5426 20.1826 94.8902 18.5055 95.5856 17.0584C96.212 15.6862 97.2139 14.5191 98.4755 13.6921C99.7507 12.8878 101.234 12.4753 102.741 12.5056C103.922 12.4911 105.09 12.7612 106.144 13.2929C107.127 13.7792 107.951 14.5336 108.523 15.4691V4.5166H114.049ZM107.507 26.2064C108.243 25.2682 108.611 23.9192 108.611 22.1594C108.611 20.4266 108.239 19.0911 107.495 18.153C106.75 17.2148 105.708 16.7451 104.367 16.7439C103 16.7439 101.939 17.2074 101.183 18.1346C100.428 19.0617 100.05 20.3788 100.05 22.0858C100.05 23.842 100.428 25.202 101.183 26.1659C101.939 27.1298 103 27.6118 104.367 27.6118C105.725 27.6142 106.772 27.1457 107.507 26.2064ZM135.148 12.9784V31.5318H129.694V28.7872C129.129 29.7417 128.304 30.5156 127.315 31.0185C126.24 31.5662 125.047 31.8416 123.841 31.8206C122.334 31.8613 120.85 31.4534 119.576 30.6486C118.303 29.8439 117.297 28.6786 116.687 27.3009C115.991 25.8501 115.644 24.1731 115.644 22.2698C115.644 20.3665 115.991 18.6705 116.687 17.1817C117.311 15.7782 118.319 14.5799 119.595 13.7252C120.857 12.9041 122.335 12.4793 123.841 12.5056C125.052 12.4862 126.248 12.7762 127.315 13.3481C128.301 13.8719 129.124 14.6565 129.694 15.6163V12.9784H135.148ZM128.598 26.2229C129.333 25.2958 129.701 23.9542 129.701 22.198C129.701 20.4419 129.333 19.0929 128.598 18.1511C127.862 17.2105 126.813 16.7408 125.45 16.742C124.088 16.7433 123.026 17.232 122.266 18.2081C121.511 19.1892 121.132 20.5437 121.131 22.2716C121.13 23.9995 121.502 25.3228 122.248 26.2413C122.992 27.1549 124.059 27.6124 125.45 27.6136C126.815 27.6148 127.864 27.1519 128.598 26.2248V26.2229ZM74.008 31.793H67.1521L59.7757 23.3809V31.793H54.1799V4.5166H59.7757V21.0815L66.8174 13.0409H73.5261L65.5573 22.0546L74.008 31.793ZM38.8493 31.8022L28.1102 19.4406L33.9746 31.8022H29.9093L23.9271 19.1996L26.4142 31.8022H23.9161L21.4272 19.1812V31.8022H20.4468V4.5166H21.4272V18.129L23.9511 4.5166H26.4418L23.9069 18.1879L30.0049 4.5166H34.0261L27.952 18.1382L38.9818 4.5166H45.284L33.8753 18.6091L45.3373 31.8022H38.8493Z" fill="#231F20"/>
<path d="M139.782 31.5027C141.455 31.5027 142.812 30.1463 142.812 28.473C142.812 26.7998 141.455 25.4434 139.782 25.4434C138.109 25.4434 136.752 26.7998 136.752 28.473C136.752 30.1463 138.109 31.5027 139.782 31.5027Z" fill="#231F20"/>
</svg>
