<svg width="179" height="43" viewBox="0 0 179 43" fill="none" xmlns="http://www.w3.org/2000/svg">
<g clip-path="url(#clip0_776_1646)">
<path d="M42.8312 19.8097C42.8208 19.5639 42.7972 19.3188 42.7604 19.0756C42.3116 15.2576 40.8574 11.6342 38.5519 8.5891L38.4393 8.47769C35.709 4.85521 31.9149 2.2147 27.6092 0.940484C26.1036 0.49675 24.5537 0.227428 22.9888 0.137615C22.5834 0.114676 22.1748 0.101562 21.763 0.101562C20.0334 0.104566 18.3109 0.324696 16.6343 0.756971C16.29 0.845451 15.9522 0.943767 15.6143 1.04863V1.02897C12.3983 2.03435 9.46474 3.80801 7.05813 6.20215C4.65153 8.59629 2.84157 11.5415 1.77906 14.7925C1.72437 14.9629 1.66967 15.1202 1.61819 15.307V15.3333C1.51523 15.6806 1.4187 16.0345 1.33183 16.3884C1.3333 16.4103 1.3333 16.4322 1.33183 16.454C1.29643 16.6015 1.26426 16.7522 1.23209 16.8997C1.23209 16.9357 1.23208 16.9718 1.20956 17.0078C1.17417 17.1651 1.14521 17.3191 1.11304 17.4764V17.5289C1.08086 17.7026 1.0519 17.8762 1.02294 18.0532C1.02294 18.086 1.02294 18.122 1.00686 18.1581C0.987552 18.2924 0.965031 18.4301 0.948944 18.5677C0.948944 18.6201 0.948942 18.6758 0.926419 18.7283C0.926419 18.8561 0.894239 18.9839 0.881369 19.1149C0.881369 19.1608 0.881369 19.21 0.881369 19.2559C0.862064 19.4263 0.845989 19.5836 0.833119 19.7704V19.8851C0.833119 20.0194 0.813808 20.1571 0.807373 20.2947V20.4815C0.807373 20.5995 0.807373 20.7174 0.807373 20.8387C0.807373 20.8977 0.807373 20.9599 0.807373 21.0189C0.807373 21.1795 0.807373 21.3466 0.807373 21.4974V21.5432C0.807373 21.7169 0.807373 21.8906 0.807373 22.0643C0.807373 22.1102 0.807373 22.1528 0.807373 22.1987C0.807373 22.3232 0.807373 22.451 0.807373 22.5788V22.7459C0.807373 22.8606 0.807375 22.9786 0.829898 23.0933C0.829898 23.1523 0.829898 23.208 0.829898 23.267L0.858864 23.6242C0.858864 23.6733 0.85886 23.7258 0.874948 23.7749C0.874948 23.9388 0.910335 24.1026 0.92964 24.273C0.931189 24.2883 0.931189 24.3036 0.92964 24.3189C0.948945 24.4664 0.96825 24.6138 0.990773 24.7613L1.01974 24.9481L1.06799 25.2496L1.1066 25.4659C1.1066 25.5543 1.13878 25.6428 1.15809 25.7313C1.17739 25.8198 1.18703 25.882 1.20312 25.9607C1.21921 26.0393 1.23852 26.1245 1.25461 26.2065C1.2707 26.2884 1.29 26.367 1.3093 26.4457L1.35757 26.6587C1.40262 26.8357 1.44766 27.0159 1.49592 27.1929C1.49592 27.2387 1.51844 27.2879 1.53131 27.3338L1.61819 27.6418L1.66324 27.786C1.69112 27.8909 1.7233 28.0001 1.75976 28.1137C1.75976 28.153 1.78228 28.1924 1.79515 28.2317L1.90775 28.5594L1.92706 28.6118C2.91137 31.4707 4.47881 34.0849 6.52625 36.2824C8.5737 38.48 11.0548 40.2113 13.8062 41.3622C16.5577 42.5131 19.5173 43.0577 22.4902 42.9601C25.4631 42.8624 28.3821 42.1249 31.0551 40.7959C29.4294 39.8678 27.8837 38.8011 26.4348 37.6073C22.4941 38.7917 18.261 38.4314 14.568 36.5973C10.875 34.7631 7.98958 31.5879 6.47926 27.6962C4.96894 23.8045 4.94308 19.478 6.40676 15.5679C7.87043 11.6578 10.7177 8.44699 14.3885 6.56717C14.3885 6.51801 14.3885 6.46885 14.411 6.4197C15.9548 5.63628 17.611 5.10755 19.3177 4.85327C20.1272 4.73068 20.9445 4.66934 21.763 4.66976C22.4232 4.66935 23.0829 4.70875 23.7385 4.78774C25.9191 5.05226 28.0261 5.75714 29.936 6.86115C31.8458 7.96515 33.5203 9.4461 34.8614 11.2173L34.9837 11.3451C36.8241 13.7643 37.9781 16.6512 38.3202 19.6917L38.3749 20.1702C38.3739 20.7057 38.1781 21.2218 37.8254 21.619C37.4726 22.0161 36.988 22.2661 36.4649 22.3207C35.9418 22.3753 35.4175 22.2306 34.993 21.9145C34.5685 21.5985 34.2741 21.1335 34.1664 20.6093C33.9112 17.4673 32.5053 14.538 30.2278 12.4029C27.9503 10.2678 24.9678 9.08307 21.8724 9.08393C21.7018 9.08393 21.5345 9.08393 21.3672 9.08393C19.9185 9.13927 18.491 9.45778 17.1523 10.0244C15.0053 10.9291 13.1529 12.4329 11.8082 14.3627C10.4635 16.2925 9.68121 18.5698 9.55144 20.9325C9.42167 23.2953 9.94967 25.6473 11.0746 27.7178C12.1996 29.7883 13.8758 31.4931 15.9103 32.636C17.735 33.6646 19.7869 34.2026 21.8724 34.1992C22.1748 34.1992 22.4708 34.1992 22.7668 34.1664C21.3664 32.7202 20.1513 31.0994 19.1504 29.3426C17.8136 28.8607 16.6257 28.0274 15.7071 26.9272C14.7884 25.827 14.1716 24.499 13.9192 23.0779C13.6668 21.6567 13.7877 20.1928 14.2698 18.8345C14.7518 17.4763 15.5778 16.272 16.6641 15.3437C17.7504 14.4153 19.0583 13.7959 20.4553 13.5483C21.8523 13.3007 23.2887 13.4336 24.6191 13.9335C25.9494 14.4335 27.1263 15.2828 28.0306 16.3953C28.9348 17.5078 29.5343 18.844 29.7681 20.2685C29.775 20.6325 29.8116 20.9953 29.8775 21.3532C30.1822 22.979 31.071 24.4307 32.3703 25.4248C33.6696 26.4189 35.2861 26.884 36.9041 26.7292C38.522 26.5744 40.0252 25.8108 41.12 24.5877C42.2148 23.3645 42.8227 21.7696 42.8247 20.1144C42.8408 20.0161 42.8376 19.9113 42.8312 19.8097ZM34.1664 20.6093C34.1366 20.4649 34.1216 20.3177 34.1214 20.1702L34.1664 20.6093Z" fill="#231F20"/>
<path d="M34.4646 31.3197C33.0451 30.9262 31.6885 30.3349 30.435 29.5633C29.2009 28.8005 28.0778 27.8723 27.0974 26.8047C25.5149 25.0788 24.3422 23.0203 23.6661 20.7816C23.6241 20.6366 23.582 20.4916 23.5432 20.3466C23.3543 19.8725 23.0054 19.479 22.5566 19.2338C22.1078 18.9885 21.5872 18.907 21.0845 19.0032C20.5818 19.0994 20.1286 19.3673 19.8029 19.7608C19.4772 20.1543 19.2994 20.6486 19.3002 21.1587C19.301 21.3014 19.3151 21.4439 19.3422 21.5841L19.4392 21.9289C20.2163 24.5744 21.538 27.0296 23.3201 29.1379C24.3488 30.3535 25.5179 31.4438 26.8031 32.3863C29.5799 34.4204 32.8376 35.7038 36.2595 36.1117C37.5069 34.837 38.5871 33.4098 39.4741 31.8643C37.7857 31.9547 36.0937 31.7708 34.4646 31.3197Z" fill="#231F20"/>
<path d="M68.4515 6.10352C77.4642 6.10352 84.0248 12.7236 84.0248 21.9653C84.0248 31.207 77.4642 37.827 68.4515 37.827C59.4387 37.827 52.9233 31.207 52.9233 21.9653C52.9233 12.7236 59.4807 6.10352 68.4515 6.10352ZM68.4515 11.8969C62.9519 11.8969 59.4387 16.218 59.4387 21.9653C59.4387 27.7125 62.9616 32.0337 68.4515 32.0337C73.9413 32.0337 77.5095 27.6664 77.5095 21.9653C77.5095 16.2641 73.9413 11.8969 68.4515 11.8969Z" fill="#231F20"/>
<path d="M123.709 14.6768C130.105 14.6768 134.46 19.6063 134.46 26.8224V28.1014H118.511C118.865 30.8851 121.043 33.2141 124.685 33.2141C126.685 33.2141 129.039 32.3931 130.418 31.0225L132.904 34.7679C130.772 36.7763 127.397 37.8264 124.064 37.8264C117.535 37.8264 112.605 33.3057 112.605 26.227C112.605 19.8353 117.188 14.6768 123.709 14.6768ZM118.424 24.163H128.994C128.862 22.0629 127.442 19.2792 123.709 19.2792C120.199 19.289 118.688 21.9811 118.424 24.1728V24.163Z" fill="#231F20"/>
<path d="M138.663 6.96094H145.387V37.8271H138.663V6.96094Z" fill="#231F20"/>
<path d="M150.431 6.96094H162.255C171.652 6.96094 178.17 13.1169 178.17 22.4189C178.17 31.7208 171.652 37.8271 162.255 37.8271H150.431V6.96094ZM162.255 32.0424C168.19 32.0424 171.652 27.6467 171.652 22.4288C171.652 16.9657 168.415 12.7556 162.255 12.7556H156.816V32.0523L162.255 32.0424Z" fill="#231F20"/>
<path d="M88.2278 37.8112V16.0141H94.0858V18.4997C95.3925 16.5255 97.4254 15.5373 100.185 15.5352C102.743 15.5352 104.755 16.3982 106.22 18.1243C107.685 19.8503 108.412 22.16 108.402 25.0534V37.8274H102.556V26.0405C102.556 24.446 102.23 23.2043 101.578 22.3154C101.257 21.8793 100.836 21.5301 100.352 21.2982C99.869 21.0664 99.3374 20.9589 98.8039 20.9852C98.1526 20.9626 97.5049 21.0922 96.91 21.3642C96.3152 21.6363 95.7889 22.0435 95.3714 22.5549C94.5144 23.6013 94.0858 25.1407 94.0858 27.1732V37.8112H88.2278Z" fill="#231F20"/>
</g>
<defs>
<clipPath id="clip0_776_1646">
<rect width="177.363" height="42.8696" fill="white" transform="translate(0.807373 0.101562)"/>
</clipPath>
</defs>
</svg>
