<svg width="181" height="30" viewBox="0 0 181 30" fill="none" xmlns="http://www.w3.org/2000/svg">
<g clip-path="url(#clip0_776_1782)">
<path fill-rule="evenodd" clip-rule="evenodd" d="M22.6644 1.81836C24.2314 1.81836 25.7341 2.44088 26.842 3.54898C27.95 4.6571 28.5725 6.16005 28.5725 7.72714C28.5682 9.29284 27.9443 10.7933 26.8373 11.9005C25.7302 13.0077 24.23 13.6315 22.6644 13.6359C21.8878 13.6383 21.1185 13.4871 20.4006 13.191C19.6825 12.8949 19.0302 12.4598 18.4811 11.9107C17.9318 11.3615 17.4966 10.7093 17.2004 9.99131C16.9041 9.27335 16.7528 8.50391 16.7549 7.72724C16.7528 6.95055 16.9041 6.18114 17.2004 5.46318C17.4966 4.74521 17.9318 4.09287 18.4811 3.54376C19.0302 2.99463 19.6825 2.55951 20.4006 2.26337C21.1185 1.96729 21.8878 1.81608 22.6644 1.81846V1.81836Z" fill="#231F20"/>
<path fill-rule="evenodd" clip-rule="evenodd" d="M30.39 29.9979C29.4038 25.0101 29.8977 18.6085 24.4729 16.6809C20.3445 15.2152 16.3472 19.0711 16.7883 22.851C16.8395 23.3655 16.996 24.1617 17.2294 24.6762C19.3584 28.9944 25.7964 29.072 30.3906 29.998L30.39 29.9979Z" fill="#231F20"/>
<path fill-rule="evenodd" clip-rule="evenodd" d="M0.39209 0.000641573C1.44592 4.99967 1.06135 11.4741 6.45868 13.339C10.5696 14.7629 14.4764 10.8004 13.986 7.01945C13.9114 6.50122 13.7817 5.6976 13.524 5.18081C11.3417 0.854682 4.94281 0.880239 0.393696 0" fill="#231F20"/>
<path fill-rule="evenodd" clip-rule="evenodd" d="M0.39209 29.998C5.38039 29.0122 11.8077 29.4524 13.7106 24.0385C15.1765 19.9183 11.2948 15.9543 7.51446 16.3961C6.99998 16.4472 6.17832 16.6035 5.68919 16.8364C1.34367 19.0121 1.29299 25.4375 0.392197 29.9964" fill="#231F20"/>
<path d="M38.5969 7.65862H41.0599V12.0953C41.3582 11.4028 41.7315 10.7362 42.1797 10.1471C42.6157 9.5645 43.1264 9.0463 43.6977 8.60685C44.2709 8.17156 44.891 7.86259 45.5891 7.63277C46.2607 7.40142 47.0072 7.32532 47.7788 7.32532V10.0436H47.5789C46.6824 10.0436 45.8374 10.1973 45.041 10.5306C44.2445 10.8655 43.5479 11.3525 42.9512 12.0191C42.3532 12.6858 41.8814 13.4803 41.5581 14.4559C41.2098 15.4299 41.0349 16.5593 41.0349 17.8164V24.5894H38.5719V7.65836H38.5969V7.65862ZM56.1375 25.0501C55.0638 25.0595 53.999 24.8491 53.004 24.4308C52.0091 24.0126 51.1038 23.3951 50.3401 22.6134C49.5761 21.8078 48.968 20.8583 48.5486 19.8159C48.1019 18.7398 47.8771 17.5328 47.8771 16.2239V16.1479C47.8771 14.9165 48.077 13.7629 48.4753 12.6853C48.848 11.6548 49.4049 10.7064 50.1167 9.88933C50.8347 9.06378 51.714 8.40587 52.6963 7.95928C53.6786 7.51265 54.7415 7.28755 55.8142 7.29892C57.0339 7.29892 58.1038 7.52875 59.0737 8.01732C60.0435 8.47847 60.8401 9.11929 61.5131 9.94109C62.1848 10.7615 62.6815 11.7112 63.0048 12.7872C63.353 13.8648 63.503 15.0459 63.503 16.2772V16.7125C63.503 16.816 63.503 16.9439 63.4779 17.0976H50.4155C50.4904 18.0214 50.7138 18.8418 51.0621 19.5343C51.4103 20.2527 51.8335 20.8432 52.3553 21.3303C52.8784 21.8173 53.4765 22.2024 54.1231 22.4581C54.7698 22.7153 55.4914 22.8431 56.2394 22.8431C57.3827 22.8431 58.3776 22.6133 59.199 22.1765C60.0329 21.7263 60.7895 21.137 61.4386 20.4323L62.9567 21.8432C62.1639 22.7951 61.2008 23.5791 60.1204 24.152C59.0242 24.7411 57.706 25.0501 56.1379 25.0501L56.1375 25.0501ZM60.965 15.2255C60.8989 14.472 60.7398 13.7303 60.4918 13.0187C60.2434 12.3261 59.9186 11.7096 59.4719 11.1725C59.0075 10.6144 58.4303 10.1689 57.7812 9.86745C57.1321 9.56603 56.427 9.41606 55.7157 9.42815C54.9941 9.42815 54.3211 9.58035 53.7244 9.86345C53.1129 10.1486 52.563 10.5585 52.108 11.0689C51.6277 11.6036 51.24 12.2198 50.9617 12.8908C50.6649 13.5833 50.465 14.352 50.39 15.1996H60.9648V15.2255L60.965 15.2255ZM65.8425 7.65808H68.3055V10.6078C68.8521 9.68389 69.5737 8.91531 70.4701 8.24866C71.3665 7.60637 72.5099 7.27306 73.953 7.27306C74.9479 7.27306 75.8443 7.42678 76.6158 7.7601C77.3874 8.09494 78.0589 8.55612 78.5806 9.14519C79.1288 9.73573 79.527 10.4541 79.8253 11.3004C80.1145 12.1928 80.2575 13.129 80.2486 14.0704V24.6134H77.7842V14.7112C77.7842 13.1222 77.3859 11.8909 76.6143 10.967C75.8179 10.0432 74.6981 9.58203 73.23 9.58203C72.5334 9.58203 71.8868 9.70988 71.2652 9.9671C70.6673 10.2149 70.1262 10.5892 69.6762 11.0663C69.2262 11.5432 68.8775 12.1123 68.6523 12.7372C68.3977 13.4332 68.2711 14.1724 68.279 14.9166V24.6652H65.816V7.65827H65.8425V7.65808ZM83.5826 7.65808H86.0456V10.5043C86.319 10.0933 86.6187 9.68389 86.9655 9.29885C87.2888 8.91531 87.6621 8.55611 88.0854 8.27302C88.5086 7.99144 88.9817 7.73423 89.5285 7.55463C90.0516 7.37504 90.6733 7.29894 91.3699 7.29894C92.713 7.29894 93.8093 7.63226 94.6792 8.27302C95.5492 8.91531 96.1973 9.73416 96.6441 10.6839C96.9438 10.2228 97.2671 9.78595 97.6404 9.375C98.0137 8.96557 98.4355 8.60639 98.9086 8.29894C99.3979 7.9878 99.9253 7.74617 100.477 7.58054C101.05 7.40095 101.72 7.32485 102.441 7.32485C104.358 7.32485 105.851 7.93974 106.946 9.14515C108.041 10.3506 108.562 12.0446 108.562 14.148V24.6651H106.099V14.7112C106.099 13.0704 105.726 11.7889 104.979 10.9153C104.233 10.0173 103.188 9.582 101.845 9.582C101.223 9.582 100.65 9.68397 100.103 9.91532C99.5553 10.1451 99.0586 10.4785 98.6603 10.9411C98.2241 11.4172 97.8931 11.9859 97.6905 12.6078C97.4535 13.3263 97.3353 14.0812 97.3406 14.8406V24.6652H94.8776V14.6594C94.8776 13.0689 94.5044 11.8118 93.7579 10.9153C93.0114 10.0173 91.9664 9.58053 90.6483 9.58053C89.9767 9.58053 89.3785 9.70837 88.8319 9.96559C88.2762 10.2262 87.7832 10.6115 87.3888 11.0934C86.9624 11.587 86.633 12.1619 86.4189 12.7858C86.1823 13.4777 86.0645 14.2071 86.0705 14.941V24.6637H83.5826V7.65785V7.65808ZM119.485 25.0496C118.241 25.0496 117.122 24.8182 116.076 24.3312C115.063 23.8845 114.142 23.2401 113.364 22.4332C112.589 21.6367 111.98 20.6848 111.572 19.6358C111.142 18.5542 110.922 17.3949 110.926 16.2249V16.1488C110.926 14.9419 111.15 13.8141 111.572 12.7365C111.98 11.6801 112.59 10.7201 113.365 9.91468C114.14 9.0855 115.072 8.43058 116.102 7.99091C117.196 7.51207 118.372 7.2677 119.56 7.27253C120.78 7.27253 121.924 7.50387 122.994 7.99091C124.015 8.4372 124.943 9.0814 125.731 9.8889C126.502 10.6834 127.099 11.6088 127.522 12.6848C127.945 13.7365 128.169 14.8917 128.169 16.0972V16.1733C128.171 17.3436 127.951 18.503 127.522 19.5857C127.097 20.6319 126.49 21.5884 125.731 22.4075C124.959 23.2278 124.064 23.8686 122.994 24.3313C121.875 24.8183 120.73 25.0497 119.485 25.0497V25.0496ZM119.56 22.7666C120.457 22.7666 121.276 22.5869 122.023 22.2536C122.769 21.8945 123.391 21.4317 123.939 20.8427C124.47 20.2415 124.891 19.5459 125.183 18.7895C125.484 17.9888 125.636 17.1361 125.631 16.2767V16.1991C125.631 15.2753 125.483 14.429 125.159 13.6345C124.86 12.8554 124.42 12.1417 123.866 11.5311C123.311 10.9311 122.652 10.4437 121.924 10.0943C121.178 9.73512 120.382 9.5814 119.509 9.5814C118.613 9.5814 117.794 9.76101 117.047 10.0943C116.331 10.4288 115.688 10.9086 115.156 11.5052C114.627 12.1124 114.213 12.8171 113.935 13.5827C113.636 14.3927 113.483 15.2537 113.489 16.1214V16.1991C113.489 17.123 113.638 17.9692 113.962 18.7636C114.261 19.5597 114.707 20.2522 115.231 20.8427C115.777 21.4317 116.425 21.8929 117.171 22.2536C117.869 22.6128 118.688 22.7666 119.56 22.7666ZM130.658 7.65786H133.121V10.6075C133.668 9.68367 134.389 8.91509 135.286 8.24845C136.182 7.60616 137.326 7.27285 138.769 7.27285C139.764 7.27285 140.66 7.42657 141.431 7.75989C142.202 8.09473 142.874 8.5559 143.396 9.14497C143.944 9.73551 144.343 10.4539 144.641 11.3002C144.94 12.122 145.064 13.0443 145.064 14.0702V24.6132H142.6V14.711C142.6 13.122 142.203 11.8906 141.431 10.9668C140.635 10.0429 139.516 9.58182 138.047 9.58182C137.35 9.58182 136.704 9.70966 136.081 9.96688C135.483 10.2146 134.941 10.589 134.492 11.066C134.042 11.543 133.693 12.1121 133.467 12.7369C133.214 13.4331 133.087 14.1723 133.096 14.9164V24.665H130.631V7.65806H130.658V7.65786ZM155.613 25.0494C154.539 25.0587 153.474 24.8483 152.479 24.4301C151.484 24.0119 150.579 23.3943 149.815 22.6126C149.051 21.8071 148.443 20.8575 148.024 19.8151C147.577 18.739 147.352 17.5321 147.352 16.2232V16.1471C147.352 14.9158 147.552 13.7621 147.95 12.6845C148.323 11.6541 148.88 10.7056 149.592 9.88857C150.31 9.06302 151.19 8.40511 152.172 7.95852C153.153 7.51189 154.217 7.28679 155.29 7.29817C156.509 7.29817 157.579 7.52799 158.549 8.01656C159.487 8.46827 160.319 9.12449 160.988 9.94033C161.66 10.7607 162.157 11.7105 162.48 12.7864C162.829 13.864 163.003 15.0451 163.003 16.2764V16.7118C163.003 16.8152 163.003 16.9431 162.978 17.0968H149.915C149.989 18.0207 150.214 18.8411 150.561 19.5335C150.91 20.2519 151.333 20.8424 151.855 21.3295C152.378 21.8166 152.976 22.2016 153.623 22.4573C154.27 22.7145 154.991 22.8424 155.737 22.8424C156.882 22.8424 157.878 22.6126 158.699 22.1757C159.532 21.7255 160.289 21.1363 160.939 20.4316L162.455 21.8424C161.662 22.7944 160.699 23.5784 159.619 24.1513C158.498 24.7403 157.181 25.0493 155.613 25.0493V25.0494ZM160.466 15.2248C160.395 14.4742 160.245 13.7339 160.017 13.0179C159.767 12.3254 159.443 11.7089 158.997 11.1717C158.557 10.6424 158.014 10.2143 157.405 9.91447C156.719 9.58281 155.971 9.4163 155.215 9.42742C154.494 9.42742 153.821 9.57963 153.224 9.86272C152.613 10.1478 152.063 10.5578 151.608 11.0682C151.128 11.6028 150.74 12.2191 150.462 12.8901C150.163 13.5825 149.965 14.3512 149.89 15.1989H160.466V15.2248V15.2248ZM176.862 7.65732H179.474L172.558 25.2027C171.86 26.9469 171.065 28.2042 170.219 28.9225C169.347 29.6394 168.302 29.9986 167.084 29.9986C166.412 29.9986 165.79 29.9225 165.242 29.7947C164.669 29.6332 164.111 29.4183 163.575 29.1524L164.398 27.1266C164.795 27.3564 165.192 27.5116 165.591 27.6136C165.988 27.7155 166.436 27.7673 166.984 27.7673C167.73 27.7673 168.352 27.536 168.876 27.0748C169.372 26.6137 169.896 25.7918 170.369 24.5863L162.878 7.68235H165.591L171.586 21.8419L176.863 7.65634H176.862V7.65732Z" fill="#231F20"/>
</g>
<defs>
<clipPath id="clip0_776_1782">
<rect width="179.991" height="29.9985" fill="white" transform="translate(0.39209)"/>
</clipPath>
</defs>
</svg>
