<svg width="141" height="40" viewBox="0 0 141 40" fill="none" xmlns="http://www.w3.org/2000/svg">
<g clip-path="url(#clip0_776_1622)">
<path d="M0.865955 9.07032L5.40662 0.00170352H21.2614C21.8606 -0.0178862 22.4538 0.131788 22.9774 0.434721C23.5009 0.737653 23.9353 1.18245 24.2339 1.72155C24.9248 2.89474 24.9711 4.07792 24.3726 5.27109L12.1011 30.2537H23.8871V39.3224H3.52832C2.21448 39.3224 1.22299 38.7484 0.553869 37.6005C-0.135803 36.43 -0.181396 35.2475 0.417091 34.053L12.6886 9.07032H0.865955ZM52.0616 28.7117C52.0806 30.1073 51.8236 31.4922 51.3064 32.7809C50.7892 34.0696 50.0227 35.2347 49.0544 36.2043C48.1274 37.209 47.0104 38.0045 45.7733 38.541C44.5362 39.0776 43.2056 39.3435 41.8648 39.3224H38.927C37.5859 39.3437 36.255 39.0778 35.0175 38.5413C33.7801 38.0047 32.6628 37.2091 31.7355 36.2043C30.7672 35.2347 30.0007 34.0696 29.4835 32.7809C28.9663 31.4922 28.7093 30.1073 28.7283 28.7117V24.7327C28.7074 23.3424 28.9637 21.9626 29.4812 20.6798C29.9987 19.397 30.7662 18.2389 31.7355 17.278C32.6625 16.2728 33.7797 15.4769 35.0172 14.9404C36.2547 14.4038 37.5858 14.1381 38.927 14.1599H43.3155V10.0371C43.315 9.83576 43.2749 9.63663 43.1977 9.45187C43.1206 9.2671 43.0079 9.10058 42.8666 8.96246C42.7369 8.82349 42.5811 8.71366 42.4088 8.63978C42.2364 8.5659 42.0513 8.52955 41.8648 8.533H30.3908L34.7639 0.109568H41.8648C44.6518 0.109568 47.0483 1.14893 49.0544 3.22766C50.0237 4.1885 50.7912 5.34661 51.3087 6.6294C51.8261 7.91219 52.0825 9.29199 52.0616 10.6823V28.7117ZM43.3155 29.213V22.3736H38.927C38.7403 22.3706 38.555 22.4072 38.3824 22.481C38.2098 22.5548 38.0536 22.6644 37.9233 22.8031C37.782 22.9416 37.6693 23.1085 37.5921 23.2936C37.5149 23.4787 37.4749 23.6781 37.4744 23.8797V29.219C37.4696 29.4215 37.5072 29.6226 37.5847 29.8085C37.6622 29.9944 37.7777 30.1606 37.9233 30.2957C38.0485 30.4435 38.203 30.5616 38.3762 30.6419C38.5494 30.7223 38.7373 30.7629 38.927 30.7611H41.8648C42.0543 30.7629 42.2419 30.7222 42.4148 30.6419C42.5877 30.5616 42.7418 30.4435 42.8666 30.2957C43.0129 30.16 43.1289 29.9928 43.2064 29.8058C43.2839 29.6188 43.3211 29.4165 43.3155 29.213ZM57.9045 9.07032L62.108 0.00170352H78.2999C78.8992 -0.0178862 79.4924 0.131788 80.0159 0.434721C80.5395 0.737653 80.9738 1.18245 81.2725 1.72155C81.9647 2.89474 82.0109 4.07792 81.4112 5.27109L69.1396 30.2537H80.9276V39.3224H60.5669C59.253 39.3224 58.2616 38.7484 57.5924 37.6005C56.9015 36.43 56.8559 35.2475 57.4557 34.053L69.7368 9.07032H57.9045ZM95.5514 0.109568V29.0732C95.5468 29.2753 95.5846 29.4761 95.6621 29.6616C95.7395 29.8471 95.8549 30.013 96.0002 30.1479C96.1252 30.296 96.2796 30.4143 96.4529 30.4947C96.6261 30.575 96.8141 30.6155 97.0039 30.6133H99.9417C100.131 30.6155 100.319 30.575 100.492 30.4946C100.665 30.4143 100.819 30.296 100.944 30.1479C101.089 30.0132 101.205 29.8474 101.283 29.6619C101.361 29.4763 101.399 29.2755 101.394 29.0732V0.109568H110.138V28.7117C110.158 30.1073 109.901 31.4922 109.383 32.7809C108.866 34.0696 108.1 35.2347 107.131 36.2043C106.204 37.209 105.087 38.0045 103.85 38.541C102.613 39.0776 101.283 39.3435 99.9417 39.3224H97.002C95.6609 39.3437 94.3299 39.0778 93.0925 38.5413C91.8551 38.0047 90.7378 37.2091 89.8105 36.2043C88.8425 35.2344 88.0763 34.0692 87.5592 32.7806C87.042 31.492 86.7847 30.1073 86.8033 28.7117V0.109568H95.5514ZM125.797 0.109568V29.0732C125.792 29.2753 125.83 29.4761 125.907 29.6616C125.985 29.8471 126.1 30.013 126.246 30.1479C126.371 30.296 126.525 30.4143 126.698 30.4947C126.872 30.575 127.06 30.6155 127.249 30.6133H130.187C130.377 30.6155 130.564 30.575 130.737 30.4946C130.91 30.4143 131.064 30.296 131.189 30.1479C131.335 30.0132 131.45 29.8474 131.528 29.6619C131.606 29.4763 131.644 29.2755 131.64 29.0732V0.109568H140.386V28.7117C140.404 30.1075 140.147 31.4924 139.63 32.7811C139.112 34.0697 138.345 35.2348 137.377 36.2043C136.45 37.2091 135.333 38.0047 134.096 38.5412C132.859 39.0777 131.528 39.3437 130.187 39.3224H127.249C125.908 39.3437 124.577 39.0778 123.34 38.5413C122.102 38.0047 120.985 37.2091 120.058 36.2043C119.09 35.2344 118.324 34.0692 117.806 32.7806C117.289 31.492 117.032 30.1073 117.051 28.7117V0.109568H125.797Z" fill="#231F20"/>
</g>
<defs>
<clipPath id="clip0_776_1622">
<rect width="140.387" height="39.3236" fill="white"/>
</clipPath>
</defs>
</svg>
