<svg width="168" height="44" viewBox="0 0 168 44" fill="none" xmlns="http://www.w3.org/2000/svg">
<g clip-path="url(#clip0_776_2292)">
<path d="M119.77 24.5408C119.77 16.9549 124.057 13.3138 132.632 13.6176V20.1414H130.217C128.918 20.1414 127.957 20.4446 127.333 21.0511C126.71 21.6575 126.394 22.6435 126.386 24.0089V34.4001H119.77V24.5408Z" fill="#231F20"/>
<path d="M119.77 32.7999V35.1998H122.182C122.185 34.8842 122.125 34.5711 122.005 34.2788C121.885 33.9866 121.707 33.721 121.483 33.4976C121.258 33.2741 120.991 33.0974 120.697 32.9776C120.403 32.8578 120.088 32.7974 119.77 32.7999Z" fill="#231F20"/>
<path d="M126.193 34.9673L126.182 34.0902C126.113 32.9905 125.909 31.9227 125.246 31.0119C124.707 30.2714 123.923 29.8818 123.041 29.6996C122.783 29.6473 122.517 29.6321 122.254 29.6001H121.545C120.923 29.6213 120.314 29.7889 119.77 30.0893V32.3242C120.046 32.193 120.345 32.1157 120.651 32.0965C121.562 32.0476 122.191 32.5097 122.657 33.2334C122.855 33.5671 122.988 33.9351 123.048 34.3179C123.134 34.5666 123.134 34.8367 123.048 35.0854L123.037 35.2001H124.249C124.323 34.8534 124.376 34.5025 124.406 34.1493C124.406 33.9637 124.398 33.7765 124.398 33.5909C124.398 33.5403 124.417 33.4864 124.484 33.5268C124.501 33.537 124.501 33.5791 124.508 33.6061C124.634 34.1324 124.727 34.6654 124.803 35.2001H126.198C126.203 35.1225 126.202 35.0446 126.193 34.9673Z" fill="#231F20"/>
<path d="M131.64 14.0802C131.237 14.637 130.686 15.0405 130.18 15.4916C129.093 16.4604 128.161 17.5449 127.545 18.8661C127.514 18.9325 127.502 19.05 127.396 19.0023C127.34 18.9785 127.396 18.8899 127.409 18.8235C127.544 18.2171 127.726 17.6217 127.954 17.0427C128.262 16.274 128.662 15.5437 129.145 14.8668C129.445 14.4644 129.782 14.0894 130.152 13.7465L130.273 13.6324C129.849 13.6586 129.437 13.696 129.037 13.7448C128.111 14.8043 127.29 15.948 126.585 17.1601C125.916 18.2787 125.406 19.4739 124.815 20.6299C123.945 22.3325 122.716 23.7473 121.276 25.0106C120.792 25.4363 120.29 25.8369 119.77 26.2126V27.2001C120.252 26.8289 120.755 26.4901 121.266 26.1598C122.859 25.1398 124.585 24.333 126.397 23.7609C126.407 23.2543 126.485 22.7512 126.629 22.2644C125.688 22.4346 124.768 22.7105 123.93 23.3251C124.284 22.6335 124.754 22.0051 125.321 21.4659C126.114 20.7264 127.121 20.2448 128.204 20.0868C128.878 19.9857 129.527 19.7617 130.117 19.4262C130.329 19.3037 130.475 19.1079 130.729 18.9376C130.638 19.3714 130.474 19.7873 130.244 20.1686H132.628V16.1556C132.337 16.4172 132.014 16.6419 131.666 16.8247C130.848 17.2664 130.097 17.8183 129.435 18.4643C129.344 18.6142 129.208 18.7331 129.046 18.8048L129.368 18.3366C129.827 17.6536 130.37 17.0281 130.985 16.474C131.279 16.2112 131.597 15.9758 131.936 15.7709C132.199 15.6025 132.434 15.3951 132.632 15.1562V13.6137C132.402 13.6137 132.178 13.6018 131.955 13.6001C131.859 13.7653 131.754 13.9256 131.64 14.0802Z" fill="#231F20"/>
<path d="M125.194 27.7201C124.792 27.6919 124.393 27.7733 123.989 27.7833C124.502 27.5534 125.038 27.3795 125.589 27.2649C125.792 27.2167 125.996 27.1735 126.201 27.1353V25.6001C125.876 25.7014 125.55 25.8028 125.224 25.9008C123.608 26.3567 122.046 26.9799 120.564 27.76C120.294 27.9079 120.03 28.0657 119.77 28.2269V29.3301C120.299 29.0427 120.877 28.8545 121.475 28.7752C122.768 28.5891 124.028 28.7021 125.16 29.4248C125.566 29.6827 125.919 30.0136 126.201 30.4001V27.7102L125.194 27.7201Z" fill="#231F20"/>
<path d="M120.174 25.1759C120.809 24.5 121.391 23.7774 121.914 23.0144C122.626 21.9992 123.243 20.9229 123.758 19.7986C124.283 18.6624 124.939 17.589 125.711 16.5993C126.312 15.8388 126.981 15.1326 127.71 14.489L127.809 14.3999C122.45 15.3668 119.77 18.8251 119.77 24.7749V25.5999C119.905 25.4602 120.04 25.3189 120.174 25.1759Z" fill="#231F20"/>
<path d="M132.632 25.3406C132.632 17.7547 136.919 14.1137 145.493 14.4174V20.9412H143.077C141.778 20.9412 140.816 21.2444 140.192 21.8509C139.568 22.4574 139.256 23.4433 139.257 24.8087V35.1999H132.632V25.3406Z" fill="#231F20"/>
<path d="M134.151 30.8761C134.272 30.3067 134.36 29.7309 134.414 29.1515C134.452 28.8298 134.463 28.4894 134.491 28.1626C134.527 27.7656 134.491 27.3636 134.582 26.9649C134.62 26.6944 134.639 26.4218 134.641 26.1488C134.709 25.5266 134.832 24.9117 135.011 24.3113C135.337 23.1496 135.961 22.1435 136.684 21.1889C137.151 20.5729 137.608 19.9536 138.071 19.3376C139.086 17.9877 139.552 16.4291 139.805 14.8003C139.826 14.6668 139.847 14.5334 139.866 14.3999C139.331 14.5402 138.807 14.7174 138.297 14.9303C138.078 15.6092 137.821 16.2753 137.525 16.9252C136.45 19.2795 134.954 21.2966 132.76 22.7612C132.673 23.4799 132.63 24.2033 132.632 24.9272V24.9717C132.887 24.7818 133.136 24.5833 133.384 24.378C134.002 23.8676 134.526 23.2565 134.934 22.5713C134.957 22.5931 134.972 22.6217 134.976 22.6525C134.981 22.6834 134.976 22.7149 134.96 22.7424C134.556 24.1676 133.863 25.3994 132.632 26.2686V33.5999C132.734 33.499 132.833 33.3963 132.932 33.2919C133.547 32.6072 133.968 31.7736 134.151 30.8761Z" fill="#231F20"/>
<path d="M133.781 20.3935C134.681 19.3516 135.467 18.2129 136.124 16.9974C136.306 16.6661 136.481 16.3337 136.651 16C134.639 17.219 133.299 19.0857 132.632 21.6C133.037 21.2211 133.416 20.8117 133.781 20.3935Z" fill="#231F20"/>
<path d="M141.058 14.6844C140.902 14.8034 140.712 14.8726 140.514 14.8826C140.506 15.0011 140.489 15.1188 140.464 15.235C140.322 16.9956 139.834 18.7135 139.026 20.2953C138.565 21.2384 138.01 22.1354 137.37 22.9736C136.528 24.0612 136.114 25.3081 135.87 26.6244C135.637 27.8746 135.522 29.1401 135.36 30.3988C135.217 31.461 134.884 32.4419 134.152 33.2669C134.139 33.4109 134.037 33.4702 133.909 33.5058C133.514 33.8295 133.086 34.1133 132.632 34.3529V35.1999H139.266V28.7623C139.209 28.9318 139.144 29.113 139.069 29.2841C138.634 30.2834 138.046 31.2131 137.326 32.0421C136.967 32.4521 136.59 32.8485 136.212 33.2432C136.104 33.3335 135.988 33.413 135.863 33.4804C135.845 33.4608 135.836 33.4355 135.836 33.4092C135.836 33.383 135.845 33.3577 135.863 33.3381C137.199 31.8863 137.518 30.0973 137.648 28.2456C137.713 28.022 137.629 27.7899 137.689 27.568C137.7 26.8128 137.801 26.0614 137.988 25.3284C138.264 24.3281 138.725 23.3849 139.348 22.545C139.89 21.7861 140.615 21.1643 141.091 20.3529C141.536 19.6301 141.807 18.8196 141.886 17.9811C141.925 17.6959 141.939 17.4081 141.93 17.1205C142.132 17.4712 142.092 17.8287 142.19 18.1556C142.224 18.4505 142.224 18.7484 142.19 19.0433C142.113 19.7402 141.955 20.4263 141.717 21.0881C142.162 20.9928 142.617 20.9468 143.073 20.9509H145.493V14.4201C144.009 14.356 142.523 14.4445 141.058 14.6844Z" fill="#231F20"/>
<path d="M88.4009 29.4045C89.1808 29.0846 89.9001 28.6319 90.5274 28.0662L94.1818 31.9309C92.2859 34.1114 89.4562 35.201 85.6927 35.1999C83.3547 35.1999 81.3 34.7544 79.5285 33.8633C77.8274 33.047 76.3965 31.7538 75.4077 30.1389C74.419 28.5241 73.9143 26.6562 73.9544 24.7596C73.9266 22.8817 74.4256 21.0339 75.3941 19.4286C76.3563 17.8542 77.7287 16.5754 79.3623 15.7311C81.1123 14.8276 83.0562 14.3709 85.0228 14.4013C86.8694 14.3755 88.6964 14.7847 90.3578 15.5963C91.949 16.3829 93.2865 17.6068 94.2158 19.1264C95.1756 20.6753 95.6555 22.5143 95.6555 24.6436L81.3701 27.3987C82.1332 29.009 83.6464 29.8136 85.9097 29.8125C86.758 29.8316 87.6024 29.6933 88.4009 29.4045ZM82.1078 20.5467C81.3447 21.3023 80.9139 22.3834 80.8156 23.79L88.935 22.194C88.7079 21.3787 88.2136 20.6647 87.5326 20.1677C86.8126 19.6501 85.9446 19.3829 85.0602 19.4064C83.855 19.4086 82.8709 19.7887 82.1078 20.5467Z" fill="#231F20"/>
<path d="M114.091 15.59C115.593 16.4417 116.826 17.7014 117.65 19.2248C118.527 20.8041 118.966 22.6369 118.966 24.7233C118.966 26.8096 118.527 28.6493 117.65 30.2423C116.827 31.776 115.594 33.0481 114.091 33.9148C112.57 34.7778 110.849 35.221 109.103 35.1994C106.458 35.1994 104.481 34.4166 103.171 32.851V34.8654H96.4592V7.2002H103.505V16.4105C104.867 15.0231 106.734 14.3293 109.106 14.3293C110.849 14.3063 112.567 14.7408 114.091 15.59ZM110.66 28.2844C111.455 27.4268 111.852 26.2398 111.852 24.7233C111.852 23.233 111.455 22.0648 110.66 21.2187C109.865 20.3725 108.851 19.95 107.617 19.9511C106.381 19.9511 105.367 20.3736 104.577 21.2187C103.786 22.0637 103.389 23.2319 103.384 24.7233C103.384 26.2409 103.782 27.428 104.577 28.2844C105.372 29.1409 106.385 29.5708 107.617 29.5742C108.858 29.5742 109.873 29.1443 110.663 28.2844H110.66Z" fill="#231F20"/>
<path d="M168 14.7286V34.8714H161.291V32.8588C159.979 34.419 158.001 35.1991 155.357 35.1991C153.611 35.2209 151.891 34.7792 150.37 33.9189C148.866 33.0553 147.633 31.7876 146.81 30.259C145.933 28.6738 145.494 26.8404 145.493 24.759C145.492 22.6776 145.931 20.8511 146.81 19.2795C147.634 17.7611 148.868 16.5058 150.37 15.6572C151.894 14.8104 153.613 14.3773 155.355 14.4008C157.729 14.4008 159.596 15.0944 160.955 16.4817V14.7286H168ZM159.88 28.3079C160.675 27.4532 161.073 26.2703 161.073 24.759C161.073 23.2739 160.675 22.1097 159.88 21.2664C159.085 20.4232 158.071 20.0021 156.839 20.0032C155.602 20.0032 154.589 20.4243 153.798 21.2664C153.008 22.1086 152.61 23.2728 152.605 24.759C152.605 26.2714 153.003 27.4544 153.798 28.3079C154.593 29.1614 155.607 29.5899 156.839 29.5933C157.408 29.6105 157.975 29.5046 158.499 29.2828C159.024 29.061 159.495 28.7285 159.88 28.3079Z" fill="#231F20"/>
<path d="M53.8564 35.1998V30.1201L66.8666 12.5832V14.2508H53.8564V8.7998H73.5388V13.8062L60.3822 31.413L60.4563 29.7437H73.9521V35.1947L53.8564 35.1998Z" fill="#231F20"/>
<path d="M32.8968 0.00876025C39.7355 -0.243788 44.4146 4.9983 44.2037 11.3171V32.6899C43.967 38.9012 39.0888 44 32.8384 44H11.3652C3.63804 44 0 38.9064 0 32.6899V11.3171C0.171525 4.83107 3.69465 0.75958 11.3652 0.0002282L32.8968 0.00876025Z" fill="#231F20"/>
<path d="M31.7554 34.3334C31.8015 34.2601 31.8654 34.1995 31.9413 34.1574C32.0172 34.1153 32.1026 34.0931 32.1894 34.0927C32.7743 33.764 33.3344 33.3937 33.8656 32.9846C35.1694 32.0132 36.0272 30.731 36.6791 29.2474C37.0579 28.3121 37.3832 27.3562 37.6536 26.3843C37.8251 25.8448 37.9401 25.2677 38.091 24.7197C38.2746 24.0521 38.3329 23.3539 38.6057 22.7102C38.7893 22.28 38.8322 21.7934 38.9608 21.3359C39.2665 20.2944 39.6643 19.282 40.1497 18.3106C41.059 16.4326 42.428 14.896 43.9412 13.4909L44.2054 13.2468V10.5937C44.2054 10.271 44.1899 9.95173 44.1625 9.63418C42.0985 11.9363 39.5648 13.7738 36.7306 15.0241C34.5775 15.9596 32.3095 16.4104 30.0004 16.6972C27.9623 16.9447 25.931 17.2589 23.8946 17.4962C20.9472 17.8377 18.0325 18.3498 15.2121 19.3042C13.6022 19.844 12.0505 20.5423 10.58 21.3888L9.31046 22.1946C9.29171 22.1689 9.27452 22.1421 9.25899 22.1144L10.4873 21.2488C11.2525 20.6581 12.1171 20.2347 12.9526 19.7464C14.1436 19.0754 15.3755 18.479 16.6411 17.9606C19.6473 16.6934 22.8103 15.8322 26.046 15.3997C27.5745 15.1897 29.134 15.1862 30.6506 14.8977C32.5068 14.5144 34.3049 13.8923 35.9998 13.047C37.5251 12.2737 38.9629 11.3402 40.2887 10.2625C41.4858 9.32458 42.6094 8.29723 43.6495 7.18935C43.0363 5.39347 41.949 3.7948 40.5014 2.56092C40.2623 2.94366 39.9797 3.2977 39.6591 3.61602C38.918 4.35356 38.0173 4.7616 37.0583 5.09452C35.5419 5.60574 34.1046 6.32519 32.7882 7.23204C32.5904 7.46541 32.323 7.62989 32.0247 7.70154L32.711 6.99643C33.6965 5.96393 34.8056 5.05569 36.0135 4.2921C36.5922 3.93015 37.2033 3.6221 37.8389 3.37188C38.5719 3.05148 39.2281 2.57949 39.7637 1.98727C39.0511 1.47964 38.2784 1.06107 37.4631 0.740959C36.6911 1.37436 35.8076 1.83191 34.9618 2.35946C32.8294 3.69455 30.9216 5.26183 29.472 7.34984C29.3982 7.4574 29.3399 7.65203 29.1752 7.53935C29.0894 7.4813 29.2112 7.34472 29.2575 7.23716C29.6741 6.23761 30.1691 5.27228 30.7381 4.35015C31.4971 3.12289 32.4001 1.98984 33.4281 0.974856C33.77 0.642842 34.1321 0.332098 34.5123 0.0443893C34.2035 0.0204873 33.8879 0.00512184 33.5722 0.00512184H32.4142C30.9813 1.2873 29.6394 2.66667 28.398 4.13332C26.9243 5.85085 25.696 7.74593 24.3372 9.54881C22.3472 12.1985 19.8321 14.2626 17.0134 15.9904C14.4856 17.5505 11.7655 18.7785 8.92102 19.644C8.86036 19.6699 8.80282 19.7026 8.74946 19.7413L8.13357 19.9513C8.26224 19.6593 8.47669 19.6644 8.64824 19.5825C9.6673 19.0976 10.6538 18.5581 11.6471 18.0118C12.8804 17.3093 14.0631 16.522 15.1863 15.6558C16.5125 14.6571 17.761 13.5601 18.9211 12.3744C20.4859 10.8003 21.9047 9.08894 23.1603 7.26106C24.4443 5.41601 25.9337 3.7213 27.6003 2.20922C28.4858 1.40703 29.4278 0.668744 30.419 0L10.6366 0C7.8156 0 5.11014 1.11522 3.11539 3.10031C1.12064 5.08541 0 7.77778 0 10.5851L0 28.0369C0.247379 27.5082 0.534107 26.9986 0.85779 26.5123C2.03824 24.7192 3.56068 23.174 5.33889 21.9641C4.50818 23.1265 3.76776 24.3502 3.12407 25.6246C2.15134 27.6579 1.54402 29.763 1.69671 32.0337C1.94204 35.4278 4.24092 38.2174 7.57086 39.2043C9.57637 39.8018 11.599 40.0067 13.6183 39.3169C16.1453 38.4548 17.7357 36.5853 18.8354 34.2566C19.2616 33.3412 19.6121 32.3928 19.8836 31.4208C19.9385 31.0981 19.9882 30.7737 20.0466 30.451C20.0603 30.3657 20.11 30.2803 20.2181 30.3691C20.2456 30.3896 20.2301 30.4596 20.2353 30.5125C20.2965 31.8366 20.2804 33.1631 20.1872 34.4853C19.9453 35.6548 19.6726 36.8141 19.1579 37.8999C17.7151 40.8962 13.9374 43.802 9.33619 43.2949C7.3221 43.0729 5.4504 42.6871 3.8206 41.6593C5.47442 43.2386 8.04607 44 10.6469 44H33.5722C39.3777 43.6005 43.6667 39.0489 44.2088 33.4149V28.5269C43.4039 29.5394 42.4929 30.4637 41.4913 31.2842C40.7588 31.8851 40.0022 32.4554 39.2422 33.0188C39.0385 33.1417 38.823 33.244 38.5989 33.3244C38.4391 33.5066 38.2133 33.6183 37.971 33.6351L38.6417 33.0802C41.3455 30.982 42.4418 27.9994 43.2326 24.8443C43.3167 24.4568 43.267 24.0385 43.5123 23.6919C43.6844 22.8337 43.9178 21.9887 44.2105 21.1634V16.3899C42.706 17.9264 41.7349 19.8044 40.9852 21.8054C40.2029 23.8831 39.6265 26.0326 38.9506 28.153C38.381 29.9423 37.5129 31.5283 36.0238 32.7285C35.9603 32.9761 35.7699 33.0461 35.5434 33.07C34.4005 33.7509 33.148 34.2303 31.8412 34.487C31.7434 34.487 31.7125 34.429 31.7485 34.3385L31.7554 34.3334ZM24.9205 11.1349C26.4873 10.1062 28.3352 9.58441 30.2114 9.64101C31.38 9.67073 32.5439 9.48194 33.6425 9.08443C34.0388 8.93931 34.3459 8.64737 34.8263 8.43054C34.4814 9.27963 33.9778 10.0559 33.3423 10.7183C31.8223 12.3624 29.9112 12.9634 27.6929 12.9087C25.7852 12.8609 23.8775 12.9736 22.0126 13.9024C22.8199 12.8248 23.8028 11.8894 24.9205 11.1349ZM24.0953 19.9974C25.9058 19.907 27.7207 19.9784 29.5183 20.2108C31.1086 20.3969 32.6063 20.04 34.0714 19.5176C35.2176 19.0859 36.3228 18.5534 37.3739 17.9264C38.5761 17.2426 39.6518 16.3591 40.5546 15.3143C40.5847 15.3565 40.6008 15.4069 40.6008 15.4586C40.6008 15.5103 40.5847 15.5607 40.5546 15.6028C39.3743 18.0272 37.7205 19.9939 35.166 21.0764C33.7815 21.6654 32.3215 21.7832 30.8359 21.7593C29.5166 21.7354 28.223 21.51 26.9278 21.2966C25.708 21.0883 24.4882 20.8851 23.2667 20.6769C22.5805 20.5061 21.8599 20.5215 21.1548 20.4122C22.1173 20.1305 23.1037 20.0554 24.0953 19.9974ZM9.22125 34.2258C9.11458 34.7719 8.87942 35.285 8.53502 35.7231C7.84878 36.5768 6.85546 36.7236 5.94964 36.0987C5.51207 35.7824 5.15584 35.3676 4.90999 34.8883C3.26132 31.8544 3.80516 26.9938 7.28779 24.2007C7.33414 24.1778 7.38401 24.1628 7.43533 24.1563C7.41245 24.2804 7.39187 24.405 7.37357 24.5302C7.02187 26.4458 7.48336 28.1991 8.44924 29.8415C9.26433 31.1495 9.54088 32.72 9.22125 34.2258ZM17.245 32.6261C17.2176 32.7132 17.1936 32.7968 17.1695 32.8941C16.7406 33.8792 16.2466 34.8234 15.4265 35.5558C14.9821 35.9862 14.4188 36.2751 13.8087 36.3855C14.5329 35.4507 15.1017 34.4062 15.4934 33.2919C16.3666 30.6798 14.8226 28.0574 12.1806 27.6579C11.7325 27.5936 11.2759 27.6215 10.839 27.7399C10.7464 27.7638 10.6109 27.9106 10.5474 27.6972C11.6111 27.0296 12.7348 26.5499 14.03 26.7087C15.6204 26.9033 16.5605 27.9038 17.1438 29.2969C17.4097 29.932 17.4646 30.6115 17.4869 31.2944C17.5564 31.7527 17.4713 32.221 17.245 32.6261ZM23.0059 34.8114C22.9845 34.8589 22.9718 34.9098 22.9682 34.9617L22.0915 36.0338C22.0589 35.6309 22.306 35.3731 22.306 35.0607C22.3643 34.4819 22.6868 33.9663 22.7229 33.3841C22.8121 32.872 22.8944 32.37 22.9836 31.8595C23.2049 29.9388 23.1895 28.0284 22.3249 26.2477C21.6232 24.7965 20.3914 23.878 18.9091 23.289C18.4802 23.1183 18.0239 23.0124 17.5796 22.8758L16.3512 22.6641C14.6596 22.4115 13.0916 22.8349 11.6059 23.5912C10.7758 23.9835 10.0273 24.528 9.39967 25.196C9.28987 25.3138 9.24012 25.5033 8.98621 25.5187C9.05354 25.3121 9.16737 25.1235 9.31904 24.9673C11.0604 22.4934 13.4519 21.2676 16.473 21.3666C18.777 21.4383 20.9335 22.0273 22.6645 23.6526C24.1605 25.0543 24.8159 26.8265 24.8622 28.8411C24.9137 31.0366 24.2189 33.0034 23.0059 34.8114ZM31.6302 31.4737C31.2236 32.5612 30.7089 33.589 29.8511 34.4085C29.3778 34.8844 28.843 35.2955 28.2608 35.6309C27.8439 35.7726 27.4905 36.0851 27.017 36.068C27.7294 35.4159 28.337 34.6587 28.8183 33.8229C29.2335 33.0941 29.5382 32.3082 29.7224 31.4908C29.7859 31.1015 29.8528 30.7071 29.9214 30.3179C30.0776 28.8718 29.9214 27.506 29.0637 26.2631C28.2464 25.0675 27.0842 24.1466 25.7303 23.6219C25.5501 23.5485 25.4095 23.3897 25.2036 23.3351C25.958 23.2528 26.7213 23.3107 27.4544 23.5058C28.5421 23.7653 29.5663 24.1734 30.4121 24.9451C31.5461 25.9694 31.9561 27.2926 31.9716 28.7625C31.9716 28.9845 31.999 29.2047 31.9922 29.4233C32.0222 30.1248 31.8987 30.8244 31.6302 31.4737Z" fill="white"/>
</g>
<defs>
<clipPath id="clip0_776_2292">
<rect width="168" height="44" fill="white"/>
</clipPath>
</defs>
</svg>
